<svg width="210" height="211" viewBox="0 0 210 211" fill="none" xmlns="http://www.w3.org/2000/svg">
<path d="M207.5 105.5C207.5 162.397 161.598 208.5 105 208.5C48.402 208.5 2.5 162.397 2.5 105.5C2.5 48.6035 48.402 2.5 105 2.5C161.598 2.5 207.5 48.6035 207.5 105.5Z" stroke="#212529" stroke-width="5"/>
<path d="M93.9156 15.6766C85.6894 16.7668 77.2814 17.165 69.1124 18.5946C62.2709 19.7919 57.4076 21.4311 52.8871 27.2229C48.9491 32.2686 44.9783 38.1581 44.5607 44.7562C44.4304 46.8144 43.8417 49.8541 44.5607 51.7997C45.2417 53.6424 47.4066 53.374 48.988 53.0827C52.5242 52.4313 56.1516 50.8474 59.3017 53.5355C60.9138 54.9111 60.5154 57.2958 61.767 58.4156C62.8955 59.4253 68.3379 59.1827 68.5338 60.5538C68.7399 61.9969 67.9579 62.9866 66.949 63.8995C65.7294 65.003 64.2287 65.8151 62.8738 66.7421C61.3957 67.7534 59.5492 67.038 57.893 67.3961C55.7587 67.8576 54.1083 69.3448 52.4092 70.6663C50.4301 72.2056 48.6972 73.6966 47.1014 75.6471C46.266 76.6681 46.8247 79.2526 46.8247 80.4266C46.8247 84.1489 45.8075 86.983 43.7054 90.0611C41.3891 93.4528 41.6339 92.9499 45.0135 92.2999C47.2786 91.8643 50.5183 91.0393 52.2582 89.4825C53.5809 88.2991 54.2551 85.8465 55.7045 84.9546C56.8212 84.2674 58.1412 83.6465 59.4778 83.6465C62.3897 83.6465 61.6234 90.3668 61.7418 91.8472C62.1397 96.8203 61.8561 108.419 67.6533 111.317C70.5364 112.759 74.2193 113.533 77.4136 113.959C79.5137 114.239 80.8502 113.934 82.8221 113.934C85.1749 113.934 88.1823 113.314 90.2932 114.487C92.5797 115.757 93.6737 119.404 95.7016 121.178C98.1638 123.333 97.9908 125.423 97.9908 128.826C97.9908 136.248 96.5897 143.637 94.2678 150.711C91.8307 158.135 88.4295 164.889 87.3752 172.722C87.0674 175.008 87.3262 177.287 87.0985 179.564C86.9965 180.584 86.503 181.446 86.696 182.507C87.0959 184.707 90.6743 184.671 92.3056 184.922C96.3761 185.548 99.2058 183.999 102.871 182.558C106.409 181.166 110.037 179.666 113.663 178.533C116.551 177.63 117.602 174.363 119.951 172.445C122.938 170.007 126.24 168.739 128.454 165.376C130.186 162.746 131.035 159.686 131.976 156.723C133.11 153.149 134.922 149.846 136.227 146.334C137.625 142.573 140.247 139.387 141.459 135.567C142.09 133.582 143.132 132.075 142.616 129.932C141.978 127.276 140.411 124.776 138.743 122.637C136.393 119.625 133.766 112.718 129.485 112.148C125.591 111.628 121.877 110.764 117.914 110.764C113.822 110.764 102.657 111.762 104.883 104.525C105.701 101.867 102.657 100.387 100.355 101.155C99.4113 101.469 97.4097 103.055 97.06 101.482C96.4416 98.6988 93.0896 98.7955 90.7712 98.5636C86.8215 98.1687 84.7022 102.558 80.7845 100.702C77.265 99.0347 76.7275 93.3699 76.0301 90.1617C75.3094 86.8467 76.3664 83.837 79.4261 82.1372C81.8142 80.8104 84.3795 78.5487 87.3752 79.0934C88.7424 79.342 90.3958 80.7703 91.1988 81.8856C92.4073 83.5641 94.8484 83.278 96.733 83.1434C101.132 82.8292 99.802 76.2594 99.802 73.3831C99.802 66.7526 104.526 61.847 110.241 59.3464C114.366 57.542 119.504 58.0077 122.895 54.6171C123.56 53.9517 124.497 51.456 125.058 52.3532C126.396 54.4941 129.974 54.344 130.567 51.674C131.063 49.4399 129.408 44.4508 130.944 42.7438C134.418 38.8843 125.31 39.3655 123.222 38.9705C120.008 38.3625 120.97 36.9018 121.511 34.4677C121.966 32.4198 124.412 31.2862 124.806 28.9586C125.255 26.3127 127.058 24.1095 126.97 21.4623C126.861 18.203 123.268 15.7768 120.782 14.3182C117.251 12.247 114.285 12.4023 110.518 11.375C109.018 10.9658 107.612 10.3624 106.091 10.0166C104.693 9.69895 101.892 9.25943 100.708 10.4443C98.4704 12.6814 97.2509 13.4086 93.9156 14.3182" stroke="#212529" stroke-width="5" stroke-linecap="round"/>
<path d="M145.535 14.7705C144.455 16.1365 142.339 18.1685 141.937 19.9777C141.658 21.2334 143.531 22.6531 143.95 23.8265C144.713 25.9637 145.643 28.3544 148.352 28.3544C150.999 28.3544 150.88 24.5751 152.779 23.6252C155.033 22.4985 154.503 21.737 155.496 19.7513" stroke="#212529" stroke-width="5" stroke-linecap="round"/>
<path d="M174.061 35.5996C171.421 36.9466 170.041 38.0006 167.948 39.6748C166.375 40.9331 167.494 45.2667 167.168 47.0202C166.727 49.3894 165.607 50.2346 163.848 51.6739C162.442 52.8239 161.17 52.9214 162.187 55.0699C163.995 58.8857 167.027 61.5829 167.269 65.937C167.376 67.8584 168.06 70.0841 166.59 71.8485C166.021 72.5305 166.022 73.6105 165.659 74.3892C165.296 75.1659 164.341 76.2964 164.124 77.0557C163.666 78.6612 166.762 80.4718 168.074 80.4265C169.899 80.3636 171.552 79.5209 173.407 79.5209C176.214 79.5209 177.424 78.8745 179.444 76.8545C181.23 75.0688 181.295 71.2998 180.501 69.006C179.63 66.4919 177.23 64.9428 177.23 62.2895C177.23 59.6458 178.561 58.1608 179.847 55.9755C181.405 53.3255 184.674 58.2679 185.557 59.3463C188.457 62.8906 189.434 56.4715 190.361 54.6171" stroke="#212529" stroke-width="5" stroke-linecap="round"/>
<path d="M203.04 88.5762C195.344 91.611 188.442 96.4385 180.727 99.393C178.714 100.164 177.023 101.213 175.218 102.361C170.666 105.258 171.074 113.732 171.369 118.461C171.585 121.914 176.138 128.592 179.042 130.334C181.894 132.046 183.26 134.496 184.022 137.68C185.639 144.43 184.618 155.448 179.52 160.546C176.516 163.549 173.884 166.791 170.438 169.375C166.76 172.134 163.646 173.672 163.646 178.683C163.646 181.648 163.875 183.101 165.458 185.475" stroke="#212529" stroke-width="5" stroke-linecap="round"/>
<path d="M8.33691 136.573C8.6611 134.887 9.46495 129.678 11.3304 128.674C15.0058 126.695 20.2038 128.243 23.5811 129.932C29.4962 132.889 33.8068 138.157 36.2594 144.119C37.1732 146.341 39.9606 150.009 39.5548 152.647C39.132 155.395 37.5849 158.447 35.6557 160.42C32.7243 163.418 29.29 166.457 25.0904 166.457" stroke="#212529" stroke-width="5" stroke-linecap="round"/>
<path d="M4.26172 89.9346C7.75393 92.7616 8.21674 93.7624 12.7139 93.5318C14.1466 93.4583 23.6937 90.273 20.4618 94.4625C17.1301 98.7814 8.7407 99.8471 4.71452 95.8209" stroke="#212529" stroke-width="5" stroke-linecap="round"/>
<path d="M9.24243 66.3895C9.81655 66.807 14.3889 69.6968 15.1288 68.4019C16.6046 65.8192 16.0694 61.3808 18.399 59.2453C18.7922 58.8849 20.5594 58.7238 21.1158 58.5913C22.8895 58.169 22.6795 57.3828 23.3043 55.9248C24.9461 52.0939 27.1991 48.1512 28.3605 44.2024C28.8044 42.6934 29.7677 40.6238 30.7503 39.4229C32.3348 37.4862 32.9612 34.7002 34.4985 32.6309C35.4891 31.2974 37.2051 29.7129 38.9258 29.7129C41.5097 29.7129 41.8438 29.2526 41.8438 26.9961" stroke="#212529" stroke-width="5" stroke-linecap="round"/>
<path d="M108.858 90.8407C111.952 90.7652 115.794 87.0124 118.819 89.0295" stroke="#212529" stroke-width="5" stroke-linecap="round"/>
<path d="M126.97 95.8213H129.687" stroke="#212529" stroke-width="5" stroke-linecap="round"/>
<path d="M133.762 102.16C134.518 102.71 135.215 103.113 136.026 103.519" stroke="#212529" stroke-width="5" stroke-linecap="round"/>
<path d="M25.9961 118.461C26.8789 119.151 27.5601 120.272 28.7129 120.272" stroke="#212529" stroke-width="5" stroke-linecap="round"/>
<path d="M31.8823 117.103C32.1038 118.111 32.3948 118.902 32.7879 119.819" stroke="#212529" stroke-width="5" stroke-linecap="round"/>
<path d="M37.3159 124.801C38.3504 125.527 40.3703 126.381 40.9383 127.518" stroke="#212529" stroke-width="5" stroke-linecap="round"/>
<path d="M59.5029 195.437C62.5426 192.397 64.3598 192.268 68.6595 192.268C72.3844 192.268 75.7686 193.173 79.5769 193.173C83.0341 193.173 86.3129 194.035 89.6894 194.079C93.3395 194.126 96.8841 193.173 100.456 193.173C102.112 193.173 104.684 193.331 106.166 194.129C108.915 195.609 110.805 199.388 113.637 200.418C116.053 201.296 118.43 203.307 120.631 204.04" stroke="#212529" stroke-width="5" stroke-linecap="round"/>
</svg>
