<svg width="2751" height="1567" viewBox="0 0 2751 1567" fill="none" xmlns="http://www.w3.org/2000/svg">
<path d="M1106.19 204.752C1106.19 127.283 1100.96 105.473 1100.96 28.0035C1113.06 24.0457 1118.5 23.3398 1120.31 24.1285C1120.36 24.087 1120.41 24.0453 1120.46 24.0034C1170.96 20.5034 1118.75 16.1719 1165.46 9.50344C1209.15 3.2656 1224.67 7.73289 1268.96 6.50344C1308.47 5.40664 1329.94 11.5022 1369.46 11.5022C1373.35 11.5022 1379.93 5.64125 1380.43 15.7219C1383.32 15.7383 1386.73 16.1314 1390.73 17.0022C1390.73 51.8587 1402.31 42.6787 1385.81 79.7714C1380.1 92.6167 1388.34 108.09 1381.25 120.846C1370.57 140.047 1376.66 181.43 1375.27 201.241C1371.94 248.936 1365.44 296.61 1365.44 344.477C1365.44 409.181 1354.65 483.2 1370.36 545.99C1383.6 598.945 1390.73 657.261 1390.73 711.694V846.784C1392.14 877.274 1390.73 912.17 1390.73 936.287C1390.73 960.404 1402.27 965.414 1400.21 995.358C1396.86 1044.29 1402.11 1087.9 1381.25 1131.92C1362.79 1170.87 1336.99 1201.05 1292.72 1207.75C1256.59 1213.22 1215.76 1213.02 1182.07 1217.23C1169.8 1218.77 1127.02 1233.32 1105.37 1242.17C1068.96 1260.86 1027.94 1270.95 1008.18 1286.74C970.125 1317.17 988.254 1315.94 944.951 1350.36C899.679 1364.13 891.202 1387.85 869.07 1387.85C844.566 1408.39 844.218 1406.61 832.888 1432.09C815.62 1470.91 746.426 1470 710.289 1470C643.947 1470 594.014 1424.61 594.014 1359.42C594.014 1356.29 594.658 1351.99 595.801 1347.1C593.736 1351.94 591.531 1357.1 589.096 1362.57C578.563 1386.26 599.327 1403.61 586.285 1425.77C579.248 1437.72 541.816 1451.04 527.621 1451.04C491.835 1451.04 474.817 1424.2 469.365 1393.99C466.732 1411.32 460.023 1425.77 426.45 1425.77C407.464 1425.77 388.029 1409.93 376.863 1390.38C377.78 1402.45 375.238 1412.24 360.057 1413.13C340.454 1414.28 309.082 1408.96 293.664 1396.98C275.561 1382.91 256.859 1334.2 284.179 1319.74C293.216 1314.96 345.382 1293.06 331.603 1293.06C306.995 1293.06 277.99 1306.68 271.884 1334.14C265.126 1364.53 276.93 1368.89 239.917 1368.89C178.647 1368.89 160.003 1307.35 170.011 1252.34C177.161 1213.04 225.709 1223.55 255.725 1223.55C269.751 1223.55 270.135 1236.19 284.179 1236.19C296.774 1236.19 309.549 1236.85 322.118 1236.19C334.532 1235.54 371.447 1223.54 379.027 1214.07C408.749 1176.94 489.679 1178.58 530.782 1152.64C540.245 1146.66 543.366 1134.19 552.562 1127.36C571.839 1113.03 594.642 1103.08 615.442 1091.2C643.918 1074.94 673.848 1076.61 701.507 1064.17C736.232 1048.55 769.736 1024.04 800.921 1003.08C872.973 954.651 957.864 907.553 1008.18 834.919C1035.7 795.199 1042.42 741.697 1061.93 699.055C1080.17 659.175 1069.43 606.35 1083.71 563.543C1098.15 520.253 1089.92 468.924 1096.7 424.169C1107.78 351.104 1106.19 278.441 1106.19 204.752Z" fill="#B8A167" stroke="#262626" stroke-width="10" stroke-linecap="round"/>
<path d="M1761.38 204.744V66.9951C1738.03 62.4308 1731.26 78.9344 1729.75 84.8955C1730.06 82.2165 1730.46 76.6989 1730.46 66.9974C1673.46 58.9934 1706.84 65.6658 1661.46 58.9974C1619.01 52.7596 1606.49 60.2232 1563.46 58.9937C1525.07 57.8969 1532.53 48.9971 1494.13 48.9971C1494.48 79.4401 1494.72 103.527 1494.85 122.263C1494.62 121.776 1494.38 121.301 1494.13 120.838C1492.65 118.111 1491.86 115.259 1491.47 112.335C1491.38 109.574 1491.29 106.831 1491.2 104.13C1491.49 96.6053 1492.7 88.9309 1490.49 81.922C1490.41 79.3077 1490.33 76.8447 1490.26 74.5703C1490.29 74.3549 1490.31 74.1443 1490.34 73.9384C1490.63 73.6201 1491.01 70.9391 1491.4 67.5545C1493.78 58.4072 1494.13 95.9912 1494.13 66.9951C1494.13 39.0295 1492.65 56.8265 1491.4 67.5545C1491.08 68.7695 1490.73 70.809 1490.34 73.9384C1490.3 73.9746 1490.27 73.9802 1490.24 73.9529C1489.9 63.3541 1489.69 57.0533 1489.69 58.9951C1489.69 69.6512 1489.91 73.6628 1490.24 73.9529C1490.25 74.1571 1490.25 74.3629 1490.26 74.5703C1490.08 76.0628 1489.89 77.7853 1489.69 79.7632C1490 80.475 1490.26 81.1949 1490.49 81.922C1490.7 88.5536 1490.95 96.1589 1491.2 104.13C1491.1 106.899 1491.12 109.647 1491.47 112.335C1493.24 165.732 1495.58 226.009 1494.85 122.263C1504.22 142.019 1498.62 181.899 1499.93 201.233C1503.17 248.928 1509.49 296.603 1509.49 344.469C1509.49 409.173 1519.97 483.192 1504.71 545.982C1491.84 598.937 1484.91 657.253 1484.91 711.686V846.776C1483.55 877.266 1484.91 912.162 1484.91 936.279C1484.91 960.396 1473.7 965.406 1475.7 995.349C1478.96 1044.29 1473.85 1087.89 1494.13 1131.91C1512.06 1170.86 1537.12 1201.04 1580.14 1207.75C1615.24 1213.22 1654.92 1213.02 1687.65 1217.22C1699.57 1218.76 1741.14 1233.31 1762.17 1242.16C1797.55 1260.85 1837.41 1270.94 1856.6 1286.74C1893.58 1317.16 1875.96 1315.93 1918.04 1350.36C1962.02 1364.13 1970.26 1387.84 1991.76 1387.84C2015.57 1408.39 2015.91 1406.6 2026.92 1432.08C2043.7 1470.91 2110.93 1469.99 2146.04 1469.99C2210.5 1469.99 2259.01 1424.61 2259.01 1359.41C2259.01 1356.28 2258.39 1351.98 2257.28 1347.09C2259.28 1351.93 2261.43 1357.09 2263.79 1362.57C2274.03 1386.25 2253.85 1403.6 2266.52 1425.76C2273.36 1437.71 2309.73 1451.04 2323.52 1451.04C2358.29 1451.04 2374.83 1424.19 2380.12 1393.99C2382.68 1411.31 2389.2 1425.76 2421.82 1425.76C2440.27 1425.76 2459.15 1409.92 2470 1390.37C2469.11 1402.44 2471.58 1412.23 2486.33 1413.12C2505.38 1414.27 2535.86 1408.96 2550.84 1396.97C2568.43 1382.9 2586.6 1334.19 2560.05 1319.74C2551.27 1314.96 2500.59 1293.05 2513.98 1293.05C2537.88 1293.05 2566.07 1306.67 2572 1334.13C2578.57 1364.52 2567.1 1368.89 2603.06 1368.89C2662.59 1368.89 2680.7 1307.34 2670.98 1252.33C2664.03 1213.03 2616.86 1223.54 2587.7 1223.54C2574.07 1223.54 2573.7 1236.18 2560.05 1236.18C2547.82 1236.18 2535.4 1236.84 2523.19 1236.18C2511.13 1235.53 2475.26 1223.53 2467.9 1214.06C2439.02 1176.93 2360.39 1178.57 2320.45 1152.63C2311.26 1146.65 2308.22 1134.18 2299.29 1127.35C2280.56 1113.03 2258.4 1103.07 2238.19 1091.19C2210.53 1074.93 2181.45 1076.6 2154.57 1064.16C2120.83 1048.54 2088.28 1024.03 2057.98 1003.07C1987.97 954.643 1905.49 907.545 1856.6 834.911C1829.87 795.191 1823.33 741.69 1804.38 699.048C1786.66 659.168 1797.09 606.342 1783.22 563.535C1769.19 520.245 1777.19 468.916 1770.59 424.161C1759.83 351.096 1761.38 278.433 1761.38 204.744Z" fill="#B8A167" stroke="#262626" stroke-width="10" stroke-linecap="round"/>
<path d="M716.378 1322.55C692.647 1321.88 667.129 1311.62 643.904 1320.8C622.596 1329.21 652.792 1346.01 662.801 1348.44C677.323 1351.97 695.248 1355.84 710.143 1355.84C720.221 1355.84 728.443 1358.06 731.769 1346.1C734.86 1334.98 727.088 1327.02 718.131 1322.55" stroke="#262626" stroke-width="5" stroke-linecap="round"/>
<path d="M2140.21 1322.55C2163.44 1321.88 2188.43 1311.62 2211.17 1320.8C2232.03 1329.21 2202.47 1346.01 2192.67 1348.44C2178.45 1351.97 2160.9 1355.84 2146.31 1355.84C2136.44 1355.84 2128.39 1358.06 2125.14 1346.1C2122.11 1334.98 2129.72 1327.02 2138.49 1322.55" stroke="#262626" stroke-width="5" stroke-linecap="round"/>
<path d="M531.84 1356.38C526.172 1355.31 511.782 1352.07 506.036 1355.61C496.824 1361.3 514.931 1369.59 519.434 1371.1C523.856 1372.59 549.397 1378.04 538.986 1368.51C533.944 1363.89 528.267 1365.12 528.267 1356.38" stroke="#262626" stroke-width="5" stroke-linecap="round"/>
<path d="M2319.83 1356.38C2325.34 1355.31 2339.36 1352.07 2344.95 1355.61C2353.92 1361.3 2336.29 1369.59 2331.91 1371.1C2327.6 1372.59 2302.73 1378.04 2312.87 1368.51C2317.78 1363.89 2323.3 1365.12 2323.3 1356.38" stroke="#262626" stroke-width="5" stroke-linecap="round"/>
<path d="M426.413 1336.49C423.505 1336.49 399.708 1334.59 399.49 1338.28C398.893 1348.41 407.207 1350.52 415.644 1353.53C418.954 1354.71 436.292 1356.19 437.083 1353.43C439.336 1345.55 430.848 1343.56 428.208 1338.28" stroke="#262626" stroke-width="5" stroke-linecap="round"/>
<path d="M2422.21 1336.49C2425.05 1336.49 2448.22 1334.59 2448.43 1338.28C2449.01 1348.41 2440.92 1350.52 2432.7 1353.53C2429.48 1354.71 2412.6 1356.19 2411.83 1353.43C2409.63 1345.55 2417.9 1343.56 2420.47 1338.28" stroke="#262626" stroke-width="5" stroke-linecap="round"/>
<path d="M336.497 1324C326.55 1324 320.464 1325.56 311.249 1327.65C293.681 1331.63 321.126 1348.45 327.21 1348.86C349.977 1350.37 336.497 1339.8 336.497 1325.78" stroke="#262626" stroke-width="5" stroke-linecap="round"/>
<path d="M2509.31 1324C2518.97 1324 2524.88 1325.56 2533.84 1327.65C2550.9 1331.63 2524.24 1348.45 2518.33 1348.86C2496.21 1350.37 2509.31 1339.8 2509.31 1325.78" stroke="#262626" stroke-width="5" stroke-linecap="round"/>
<path d="M227.347 1241.16C219.99 1239.98 198.578 1234.23 200.593 1248.3C202.418 1261.05 219.334 1267.02 229.137 1271.51C248.348 1280.32 241.498 1247.32 232.718 1242.94" stroke="#262626" stroke-width="5" stroke-linecap="round"/>
<path d="M2615.23 1241.16C2622.41 1239.98 2643.3 1234.23 2641.33 1248.3C2639.55 1261.05 2623.05 1267.02 2613.48 1271.51C2594.74 1280.32 2601.42 1247.32 2609.99 1242.94" stroke="#262626" stroke-width="5" stroke-linecap="round"/>
<ellipse cx="904.459" cy="450.5" rx="105" ry="105.5" fill="#1ED747"/>
<ellipse cx="904.459" cy="1461.5" rx="105" ry="105.5" fill="#1ED747"/>
<circle cx="2531.46" cy="1414" r="105" fill="#1ED747"/>
<ellipse cx="1891.96" cy="590" rx="71.5" ry="72" fill="#1ED747"/>
<circle cx="202.459" cy="995" r="72" fill="#1ED747"/>
<circle cx="2265.46" cy="417" r="72" fill="#1ED747"/>
<path d="M55.4961 1210.74C67.5061 1237.24 86.3923 1265.24 88.2051 1295.15C88.3313 1297.23 88.4338 1328.83 88.4338 1313.67M96.6682 1227.21C101.443 1253.87 109.308 1279.61 117.254 1305.44L125.489 1235.45M117.254 1227.21C121.949 1245.11 125.489 1262.22 125.489 1280.74M146.075 1194.28C148.977 1216.22 151.723 1238.17 154.309 1260.15M170.778 1186.04L179.013 1218.98M199.599 1194.28C199.849 1204.79 201.495 1213.1 203.716 1223.1M269.591 1194.28L273.709 1214.86M137.84 1272.5C141.254 1297.25 143.818 1321.79 146.075 1346.61M133.723 1280.74L150.192 1367.2M162.544 1313.68C167.363 1328.7 171.076 1343.69 174.895 1358.97M121.372 1330.14C121.144 1347.21 119.483 1362.84 117.254 1379.55M55.4961 1305.44V1326.03M51.3789 1326.03L47.2617 1350.73M26.6755 1297.21C28.8269 1307.24 31.6926 1316.37 34.91 1326.03M154.309 1350.73L150.192 1387.79M166.661 1383.67L183.13 1441.31M220.185 1358.96V1416.61M232.536 1391.9L240.771 1437.19M265.474 1350.73C273.061 1373.94 274.508 1396.67 277.826 1420.72M286.06 1404.25C291.619 1419.29 294.756 1434.01 298.412 1449.54M306.646 1391.9L318.998 1453.66M331.35 1424.84L335.467 1445.43M376.639 1428.96C376.835 1439.96 378.049 1448.3 380.756 1457.78M405.459 1424.84L413.694 1445.43M434.28 1424.84L442.514 1453.66M471.335 1420.72L479.569 1441.31M500.156 1428.96L508.39 1457.78M553.679 1428.96L557.796 1457.78M578.383 1437.19L582.5 1470.13M611.32 1449.54L615.438 1474.25M652.492 1470.13L664.844 1486.6M697.782 1470.13L706.016 1490.71M730.72 1445.43C736.97 1460.43 742.067 1475.35 747.188 1490.72M788.361 1453.66C793.721 1464.83 797.233 1475 800.712 1486.6M858.353 1445.43L870.705 1470.13M907.76 1400.14C915.122 1416.52 921.93 1432.86 928.346 1449.54M936.58 1367.2C938.849 1379.68 939.729 1391.67 940.698 1404.25M985.987 1354.85C987.652 1368.59 988.957 1382.25 990.104 1396.02M1006.57 1338.38V1367.2M1039.51 1305.44C1039.31 1320.09 1037.92 1332.7 1035.39 1346.61M1031.28 1330.14L1018.92 1363.08M1014.81 1346.61L1006.57 1383.67M981.87 1346.61C977.393 1367.16 973.45 1387.73 969.518 1408.37M969.518 1387.79V1433.07M1010.69 1367.2L1018.92 1416.61M1055.98 1342.5C1061.93 1361.53 1060.1 1376.46 1060.1 1396.02M1072.45 1350.73C1073.42 1353.71 1080.68 1379.91 1080.68 1375.43M1125.97 1305.44V1338.38M1130.09 1288.97C1132.79 1307.46 1130.97 1323.98 1130.09 1342.49M1109.5 1301.32C1107.31 1322.06 1104.36 1342.48 1101.27 1363.08M1084.8 1317.79L1080.68 1371.32M1088.92 1379.55C1090.55 1394.66 1091.87 1409.71 1093.03 1424.84M1142.44 1338.38C1146.01 1356.24 1149.74 1380.86 1154.79 1396.02M1195.96 1330.14C1198.29 1350.82 1199.14 1371.16 1200.08 1391.9M1212.43 1367.2C1212.43 1385.58 1214.04 1403.56 1208.32 1420.72M1171.26 1404.25L1154.79 1461.89M1138.32 1433.07C1135.82 1445.89 1134.21 1446.8 1130.09 1449.54M1109.5 1424.84C1105.07 1441.28 1100.97 1457.69 1097.15 1474.25M1076.57 1445.43C1073.14 1457.85 1070.62 1469.9 1068.33 1482.48M1035.39 1441.31L1027.16 1478.36M1002.46 1445.43L990.104 1470.13M1121.86 1284.85C1124.8 1299.92 1127.42 1315.03 1130.09 1330.14M1146.56 1260.15L1158.91 1297.21M1183.61 1210.74C1187.4 1228.74 1189.71 1246.12 1191.85 1264.27M1224.79 1227.21V1288.97M1265.96 1251.92V1297.21M1307.13 1218.98C1308.46 1238.89 1308.42 1257.24 1307.13 1276.62M1340.07 1206.63V1256.03M1352.42 1202.51V1235.45M1373.01 1177.81C1372.71 1190.63 1370.82 1202.28 1368.89 1214.86M1385.36 1173.69L1373.01 1218.98M1405.94 1165.46V1202.51M1471.82 1153.1V1210.74M1488.29 1190.16V1280.74M1471.82 1161.34C1463.18 1194.66 1453.05 1227.25 1443 1260.15M1418.29 1214.86C1417.32 1250.35 1411.45 1282.9 1405.94 1317.79M1348.3 1268.38C1344.3 1286.26 1340.14 1304.08 1335.95 1321.91M1323.6 1297.21C1317.89 1317.2 1313.04 1337.3 1303.01 1354.85M1294.78 1301.32C1292.85 1345.67 1282.85 1385.64 1274.19 1428.96M1282.43 1412.49L1286.54 1433.07M1340.07 1404.25C1340.32 1414.77 1341.96 1423.08 1344.18 1433.07M1488.29 1350.73C1492.04 1372.8 1496.25 1394.67 1500.64 1416.61M1533.58 1396.02C1542.21 1417.86 1550.26 1439.83 1558.28 1461.89M1587.1 1387.79C1594.75 1419.25 1601.16 1450.78 1607.69 1482.48M1669.44 1433.07C1670.39 1436.46 1674.11 1451.52 1676.76 1455.95C1680.39 1461.98 1679.54 1452.53 1681.8 1453.66M1722.97 1412.49C1727.93 1435.19 1734.04 1452.45 1743.55 1470.13M1788.84 1433.07L1792.96 1478.36M1850.6 1445.43C1852.31 1460.06 1853.09 1475.47 1856.78 1489.8C1859.89 1501.89 1860.64 1488.91 1862.95 1486.6M1916.48 1466.01C1916.7 1488.6 1913.13 1516.7 1924.71 1536M1986.47 1470.13C1986.72 1480.64 1988.37 1488.96 1990.59 1498.95M2011.17 1478.36L2023.53 1507.18M2007.06 1437.19V1466.01M1982.35 1387.79L1978.24 1416.61M1953.53 1346.61C1951.81 1365.15 1949.12 1382.3 1945.3 1400.14M1924.71 1338.38C1924.46 1351.37 1922.7 1362.79 1920.59 1375.43M1904.13 1334.26C1901.81 1347.62 1901.17 1365.05 1891.77 1371.32M1858.84 1280.74C1858.52 1294.82 1856.57 1308.01 1854.72 1321.91M1834.13 1293.09C1831.13 1306.8 1828.41 1320.48 1825.9 1334.26M1813.55 1260.15C1811.92 1291.79 1803.91 1319.96 1797.08 1350.73M1764.14 1256.03C1761.41 1277.33 1756.73 1297.02 1751.79 1317.79M1751.79 1256.03L1739.44 1297.21M1739.44 1239.56L1735.32 1264.27M1722.97 1239.56L1718.85 1264.27M1681.8 1214.86L1677.68 1239.56M1661.21 1210.74C1657.96 1236.76 1651.5 1259.74 1644.74 1284.85M1628.27 1194.28V1268.39M1640.62 1231.33V1260.15M1607.69 1202.51C1610.72 1224.44 1613.28 1246.4 1615.92 1268.39M1620.04 1206.63C1622.48 1223.17 1625.37 1239.57 1628.27 1256.03M1554.16 1194.28C1561.37 1215.89 1571.81 1232.36 1582.98 1251.92M1574.75 1169.57C1587.9 1193.35 1601.81 1216.38 1615.92 1239.56M1615.92 1161.34L1665.33 1235.45M1681.8 1186.04C1688.52 1208.99 1708.17 1249.36 1702.38 1272.5M1714.73 1243.68C1717.13 1257.52 1720.03 1271.14 1722.97 1284.85M1739.44 1305.44C1743.29 1320.64 1747.48 1335.67 1751.79 1350.73M1739.44 1350.73L1731.2 1387.79M1698.27 1346.61V1379.55M1657.09 1338.38C1656.82 1355.12 1654.96 1370.91 1653.02 1387.45L1652.98 1387.79M1599.45 1313.68V1371.32M1607.69 1309.56C1613.06 1335.55 1615.9 1360.31 1632.39 1379.55M1714.73 1301.32C1719.37 1330.52 1723.7 1359.65 1731.2 1387.78M1784.73 1350.73C1786.92 1369.94 1787.87 1388.86 1788.83 1408.13L1788.84 1408.37M1830.02 1375.43C1832.91 1402.97 1833.27 1430.14 1834.13 1457.78M1867.07 1424.84C1873.03 1443.61 1879.63 1460.98 1887.66 1478.36M1912.36 1449.54C1916.1 1467.49 1920.47 1485.24 1924.71 1503.07M1928.83 1482.48C1930.95 1503.14 1935.17 1525.22 1928.83 1544.24M1916.48 1494.83C1914.34 1508.85 1911.42 1522.25 1908.24 1536M1978.24 1486.6C1979.34 1489.85 1983.01 1507.23 1990.13 1509.01C1998.81 1511.18 2006.26 1496.59 2011.17 1494.83M2089.4 1466.01L2097.64 1486.6M2109.99 1482.48L2114.1 1507.18M2142.92 1486.6C2143.14 1495.4 2144.28 1500.27 2147.04 1507.18M2171.75 1466.01L2175.86 1494.83M2241.74 1437.19L2245.85 1470.13M2270.56 1437.19L2274.68 1461.89M2274.68 1408.37C2276.87 1425.61 2277.5 1448.37 2282.91 1461.89M2307.61 1416.61C2309.32 1428.98 2310.6 1441.25 2311.73 1453.66M2344.67 1416.61V1445.43M2369.37 1408.37C2370.83 1417.95 2372.93 1440.75 2377.61 1445.43M2431.13 1412.49C2431.13 1421.09 2426.4 1445.12 2435.25 1449.54M2492.89 1408.37C2493.45 1425.92 2495.1 1427.05 2501.12 1433.07M2554.65 1408.37V1449.54M2591.7 1412.49V1433.07M2616.4 1400.14V1433.07M2657.58 1330.14C2653.49 1351.31 2647.13 1371.25 2641.11 1391.9M2653.46 1350.73V1379.55M2686.4 1338.38V1391.9M2678.16 1387.79C2670.22 1408.37 2663.2 1428.79 2649.34 1445.43M2632.87 1412.49C2626.33 1423.8 2619.5 1434.61 2612.29 1445.43M2513.47 1420.72L2492.89 1461.89M2509.36 1227.21L2501.12 1136.63M2439.36 1169.57L2431.13 1116.05M2402.31 1157.22C2400.1 1140.56 2397.17 1124.3 2394.07 1107.81M2365.25 1144.87L2352.9 1120.17M2245.93 1095.28C2240.57 1082.85 2235.06 1070.53 2229.46 1058.22M2184.1 1070.76C2182.16 1060.22 2179.5 1051.64 2175.86 1041.94M2262.32 1095.46C2271.11 1066.16 2280.81 1037.69 2291.14 1009M2324.08 1116.05C2328.35 1100.99 2332.4 1085.88 2336.43 1070.76M2381.72 1128.4C2386.65 1107.52 2392.16 1087.15 2398.19 1066.64M2484.65 1144.87L2488.77 1116.05M2546.41 1181.92C2554.45 1170.75 2562.68 1159.84 2571.12 1148.99M2587.58 1177.81L2595.82 1153.1M2604.05 1181.92L2616.4 1161.34M2628.76 1198.39C2630.91 1188.35 2633.77 1179.22 2636.99 1169.57M2653.46 1223.1L2661.69 1177.81M2682.28 1264.27L2686.4 1235.45M2727.57 1293.09V1264.27M2739.92 1297.21L2748.16 1276.62M354.636 1188.95C346.623 1162.41 347.615 1137.27 345.845 1109.84M275.518 1145L262.332 1123.02M249.146 1180.16C244.289 1167.01 239.966 1153.96 235.959 1140.6M227.168 1149.4V1127.42M376.614 1219.72L363.427 1197.75M442.546 1140.6C439.196 1130.35 436.355 1120.24 433.755 1109.84M433.755 1127.42L429.359 1105.44M398.591 1149.4C396.387 1137.15 393.336 1126.02 389.8 1114.23M407.382 1109.84L420.568 1083.46M455.732 1118.63V1092.25M468.918 1096.65C472.206 1084.94 475.081 1073.31 477.709 1061.49M530.455 1101.05L534.85 1079.07M587.596 1074.67L622.759 1039.51M266.727 1052.7C275.228 1067.08 283.451 1080.89 288.705 1096.65M310.682 1074.67L319.473 1131.81M257.937 1114.23V1140.61M148.05 1140.6C144.875 1157.43 139.944 1172.7 134.864 1188.95M90.9091 1158.19L86.5137 1193.35M68.9319 1171.37L73.3273 1228.51M60.1411 1224.12V1290.05M11.791 1259.28V1298.84M3 1276.86V1338.4M46.9546 1334C48.92 1344.32 50.1957 1354.38 51.35 1364.77M192.005 1395.54L196.4 1430.7M174.423 1408.73C174.227 1424.39 172.911 1438.26 170.027 1452.68M108.491 1413.12C108.491 1425.57 110.499 1438.68 104.095 1448.29M956.814 1386.75C951.54 1404.62 945.426 1421.95 939.232 1439.5M921.65 1421.91C921.431 1432.45 920.163 1439.56 917.255 1448.29M882.091 1395.54C880.126 1405.86 878.85 1415.92 877.696 1426.31M860.114 1347.19V1386.75M882.091 1369.17C883.808 1377.97 885.222 1386.69 886.487 1395.54M908.464 1360.38C911.163 1378.26 912.385 1396.08 917.255 1413.12M983.187 1355.98C985.768 1370.18 989.235 1383.44 983.187 1395.54M996.373 1360.38L1005.16 1395.54M1062.3 1316.42V1351.59M1035.93 1312.03V1355.98M978.791 1276.86V1312.03M974.396 1294.45L983.187 1334M1013.95 1250.49C1018.97 1267.19 1025.09 1282.72 1031.54 1298.84M1040.33 1272.47C1042.29 1282.79 1043.57 1292.85 1044.72 1303.24M930.441 1307.63C928.068 1321.08 924.951 1333.99 921.65 1347.19M908.464 1351.59V1395.54M899.673 1408.73V1430.7M855.718 1448.29V1474.66M838.137 1421.91L824.95 1461.47M824.95 1470.26C827.054 1479.62 829.402 1485.01 833.741 1492.24M1005.16 1408.73C1006.7 1436.56 1008.17 1464.4 1009.56 1492.24M1066.7 1417.52C1068.58 1429.28 1069.91 1440.87 1071.1 1452.68M1141.42 1443.89C1144.86 1452.7 1147.64 1461.26 1150.21 1470.26M1202.96 1439.5L1207.35 1461.47M1233.73 1439.5L1238.12 1461.47M1268.89 1426.31C1273.5 1437.97 1277.79 1449.69 1282.08 1461.47M1945.79 1391.14C1948.97 1423.37 1951.89 1455.58 1954.58 1487.84M1972.16 1391.14C1977.12 1404.78 1978.79 1416.61 1980.95 1430.7M1998.54 1435.1C2000.74 1446.93 2001.85 1458.34 2002.93 1470.26M2064.47 1474.66L2073.26 1505.43M2117.21 1426.31L2130.4 1505.43M2561.16 1426.31V1448.29M2402.92 1465.87L2394.13 1492.24M2385.34 1465.87V1496.64M2451.27 1448.29V1479.06M2578.74 1439.5L2583.13 1461.47M2640.27 1452.68C2644.15 1461.81 2647.81 1467.6 2653.46 1474.66M2741.37 1312.03V1338.4L2745.76 1364.77" stroke="#797BC2" stroke-width="5" stroke-linecap="round"/>
<ellipse rx="239" ry="245.5" transform="matrix(-1 0 0 1 1417.46 1273.5)" fill="#1ED747"/>
<path d="M1358.67 1329.95C1351.44 1329.95 1344.84 1328.13 1338.85 1324.48C1332.92 1320.84 1328.2 1315.96 1324.69 1309.84C1321.24 1303.65 1319.51 1296.78 1319.51 1289.23L1319.71 1226.83C1319.71 1219.41 1321.4 1212.7 1324.78 1206.71C1328.17 1200.66 1332.82 1195.81 1338.75 1192.16C1344.74 1188.45 1351.38 1186.59 1358.67 1186.59C1366.09 1186.59 1372.7 1188.38 1378.49 1191.96C1384.35 1195.55 1389.01 1200.4 1392.46 1206.52C1395.98 1212.57 1397.73 1219.34 1397.73 1226.83V1236.01C1397.73 1236.53 1397.47 1236.79 1396.95 1236.79H1374.49C1373.97 1236.79 1373.71 1236.53 1373.71 1236.01V1226.83C1373.71 1222.4 1372.28 1218.59 1369.41 1215.4C1366.55 1212.21 1362.97 1210.62 1358.67 1210.62C1353.92 1210.62 1350.27 1212.24 1347.73 1215.5C1345.19 1218.76 1343.92 1222.53 1343.92 1226.83V1289.23C1343.92 1294.11 1345.36 1298.12 1348.22 1301.24C1351.09 1304.3 1354.57 1305.83 1358.67 1305.83C1362.97 1305.83 1366.55 1304.14 1369.41 1300.75C1372.28 1297.3 1373.71 1293.46 1373.71 1289.23V1279.95C1373.71 1279.43 1373.97 1279.17 1374.49 1279.17H1397.15C1397.67 1279.17 1397.93 1279.43 1397.93 1279.95V1289.23C1397.93 1296.72 1396.17 1303.55 1392.65 1309.74C1389.07 1315.86 1384.35 1320.77 1378.49 1324.48C1372.64 1328.13 1366.03 1329.95 1358.67 1329.95ZM1449.49 1329.95C1442.39 1329.95 1435.85 1328.13 1429.86 1324.48C1423.94 1320.84 1419.15 1315.99 1415.51 1309.93C1411.93 1303.81 1410.14 1297.11 1410.14 1289.82L1410.33 1226.44C1410.33 1219.02 1412.12 1212.34 1415.7 1206.42C1419.22 1200.43 1423.97 1195.64 1429.96 1192.06C1435.95 1188.42 1442.46 1186.59 1449.49 1186.59C1456.78 1186.59 1463.33 1188.38 1469.12 1191.96C1474.98 1195.55 1479.67 1200.36 1483.18 1206.42C1486.76 1212.41 1488.55 1219.08 1488.55 1226.44L1488.75 1289.82C1488.75 1297.11 1486.99 1303.78 1483.48 1309.84C1479.89 1315.96 1475.14 1320.84 1469.22 1324.48C1463.29 1328.13 1456.72 1329.95 1449.49 1329.95ZM1449.49 1305.83C1453.53 1305.83 1457.04 1304.2 1460.04 1300.95C1463.03 1297.63 1464.53 1293.92 1464.53 1289.82L1464.33 1226.44C1464.33 1222.01 1462.93 1218.27 1460.14 1215.21C1457.34 1212.15 1453.79 1210.62 1449.49 1210.62C1445.39 1210.62 1441.87 1212.11 1438.94 1215.11C1436.01 1218.1 1434.55 1221.88 1434.55 1226.44V1289.82C1434.55 1294.18 1436.01 1297.95 1438.94 1301.14C1441.87 1304.27 1445.39 1305.83 1449.49 1305.83Z" fill="#262626"/>
<path d="M1544.83 1379H1497.08C1496.67 1379 1496.46 1378.79 1496.46 1378.38V1363.88C1496.46 1363.71 1496.54 1363.54 1496.71 1363.38L1528.33 1320C1528.92 1319.21 1529.4 1318.21 1529.77 1317C1530.19 1315.75 1530.4 1314.67 1530.4 1313.75C1530.4 1311.25 1529.5 1308.96 1527.71 1306.88C1525.92 1304.79 1523.65 1303.75 1520.9 1303.75C1518.27 1303.75 1516.04 1304.75 1514.21 1306.75C1512.38 1308.75 1511.46 1311.29 1511.46 1314.38V1320.62C1511.46 1321.04 1511.25 1321.25 1510.83 1321.25H1496.46C1496.13 1321.25 1495.96 1321.04 1495.96 1320.62V1314.38C1495.96 1309.58 1497.15 1305.23 1499.52 1301.31C1501.86 1297.4 1504.92 1294.29 1508.71 1292C1512.5 1289.67 1516.56 1288.5 1520.9 1288.5C1525.48 1288.5 1529.67 1289.67 1533.46 1292C1537.21 1294.38 1540.21 1297.48 1542.46 1301.31C1544.75 1305.15 1545.9 1309.29 1545.9 1313.75C1545.9 1316.54 1545.4 1319.4 1544.4 1322.31C1543.44 1325.19 1542.11 1327.75 1540.4 1330L1516.08 1363.38H1544.83C1545.21 1363.38 1545.4 1363.54 1545.4 1363.88V1378.38C1545.4 1378.79 1545.21 1379 1544.83 1379Z" fill="#262626"/>
<path d="M1186.68 6.98976C1133.63 8.39725 1149.81 20.5 1130.46 20.5C1130.46 47.6841 1132.98 89.3651 1133.63 116.445C1133.93 128.868 1136.89 140.785 1137.14 153.194C1137.3 161.526 1137.6 171.15 1138.37 179.48C1139.1 187.348 1137.14 191.574 1137.14 199.731C1137.14 211.98 1139.15 222.441 1137.14 234.428C1135.28 245.512 1139.48 265.226 1139.48 276.627V305.639C1139.48 312.948 1138.61 320.688 1138.31 328.146C1138.03 334.929 1133.31 339.487 1141.17 337.553C1159.17 333.125 1176.91 323.339 1194.32 315.486C1212.14 307.448 1231.45 303.116 1248.77 293.419C1266.38 283.562 1284.92 274.758 1303.23 267.66C1312.56 264.042 1320.99 258.573 1329.67 252.89C1336.66 248.318 1349.34 242.667 1354.17 234.428C1355.79 231.662 1354.69 223.13 1354.69 219.658C1354.69 197.319 1355.86 174.687 1355.86 152.139C1355.86 120.899 1357.55 89.675 1357.55 58.4357C1357.55 52.8707 1358.13 47.0198 1358.2 41.4561C1358.29 34.9852 1358.09 29.4625 1358.2 23.0783C1358.23 21.4848 1359.07 7.57823 1357.55 6.98976C1349.6 3.91695 1340.72 5.31936 1332.47 5.31936H1244.27C1224.84 5.31936 1206.05 6.47599 1186.68 6.98976Z" fill="#B8A167" stroke="#B8A167" stroke-width="10" stroke-linecap="round"/>
<path d="M1514.96 229.5C1514.96 168.421 1507.58 108.305 1506.46 47.1308C1514.97 40.4465 1517.82 43.8834 1528.4 43.8834C1542.9 43.8834 1560.46 43.8834 1575.08 45.5558C1584.06 48.4189 1588.39 48.8032 1599.96 47.1308C1609.46 47.1308 1630.34 47.9203 1640.06 49.4898C1656.93 52.2126 1664.94 55.9409 1681.97 56.7947C1688.04 57.0992 1696.46 56.7947 1703.46 56.7947C1710.46 56.7947 1716.66 60.0307 1725.6 64.2435C1732.39 67.4449 1738.46 64.2435 1750.46 64.2435V126.315C1750.46 149.744 1746.8 173.899 1746.8 197.327C1746.8 222.827 1745.47 248.063 1745.47 273.549C1745.47 277.342 1745.43 318.582 1743.39 319.27C1736.83 321.478 1729.26 317.991 1722.77 317.784C1709.31 317.356 1695.2 313.735 1681.97 311.315C1643.57 304.292 1603.39 301.607 1566.25 287.537C1551.64 282.004 1538.75 275.662 1525.15 267.43C1519.72 264.137 1521.49 261.935 1518.46 255.5C1515.79 249.838 1514.96 235.789 1514.96 229.5Z" fill="#B8A167" stroke="#B8A167" stroke-width="10" stroke-linecap="round"/>
<path d="M551.353 1010.34H565.503" stroke="white" stroke-width="5" stroke-linecap="round"/>
<path d="M681.85 900.278C681.85 904.73 682.568 909.421 680.278 912.856" stroke="white" stroke-width="5" stroke-linecap="round"/>
<path d="M678.705 876.694V886.128" stroke="white" stroke-width="5" stroke-linecap="round"/>
<ellipse cx="552.459" cy="865.5" rx="162" ry="162.5" fill="#1ED747"/>
<path d="M519.008 852.688C518.863 855.151 516.014 857.737 514.569 859.664" stroke="#262626" stroke-width="5" stroke-linecap="round"/>
<path d="M522.814 846.979C522.814 842.778 521.946 841.623 517.775 840.32C515.192 839.513 512.482 839.824 510.27 841.271C505.157 844.614 505.615 850.126 511.397 852.053" stroke="#262626" stroke-width="5" stroke-linecap="round"/>
<path d="M524.716 840.637C526.439 840.421 527.283 837.239 527.888 835.88C528.979 833.424 528.453 831.352 526.619 829.255C524.578 826.923 517.105 823.874 517.105 829.22" stroke="#262626" stroke-width="5" stroke-linecap="round"/>
<path d="M527.888 829.855C530.336 827.406 533.141 825.112 532.292 821.292C531.449 817.497 519.643 807.48 519.643 814.633" stroke="#262626" stroke-width="5" stroke-linecap="round"/>
<path d="M506.323 829.22C500.63 829.22 496.175 825.856 496.175 820.341" stroke="#262626" stroke-width="5" stroke-linecap="round"/>
<path d="M511.397 818.439C509.766 816.603 510.619 810.193 506.641 810.193C503.449 810.193 502.425 812.143 499.981 813.365" stroke="#262626" stroke-width="5" stroke-linecap="round"/>
<path d="M511.397 807.022C511.397 797.687 520.53 798.035 527.112 800.82C531.249 802.57 533.668 810.755 530.425 813.998" stroke="#262626" stroke-width="5" stroke-linecap="round"/>
<path d="M506.323 800.679C505.632 797.912 496.05 799.494 494.273 800.679" stroke="#262626" stroke-width="5" stroke-linecap="round"/>
<path d="M484.125 806.388C481.002 806.388 479.06 807.01 477.148 809.559" stroke="#262626" stroke-width="5" stroke-linecap="round"/>
<path d="M470.171 822.243V827.951" stroke="#262626" stroke-width="5" stroke-linecap="round"/>
<path d="M468.269 840.637C468.269 842.266 468.54 843.718 467.634 845.076" stroke="#262626" stroke-width="5" stroke-linecap="round"/>
<path d="M467 856.493V865.373" stroke="#262626" stroke-width="5" stroke-linecap="round"/>
<path d="M467.634 871.715C468.766 873.751 470.696 875.191 471.44 877.423" stroke="#262626" stroke-width="5" stroke-linecap="round"/>
<path d="M477.148 889.474C479.723 890.176 480.319 893.542 480.319 895.816" stroke="#262626" stroke-width="5" stroke-linecap="round"/>
<path d="M484.759 907.232C485.565 910.997 487.992 914.394 489.199 918.015" stroke="#262626" stroke-width="5" stroke-linecap="round"/>
<path d="M495.541 926.26C496.577 929.368 500.668 932.365 502.518 935.139" stroke="#262626" stroke-width="5" stroke-linecap="round"/>
<path d="M508.86 941.482C511.213 941.744 513.934 944.019 516.471 944.654" stroke="#262626" stroke-width="5" stroke-linecap="round"/>
<path d="M522.179 949.727C526.815 949.727 536.562 951.774 539.163 945.921C540.371 943.205 540.651 938.051 539.022 935.492C536.059 930.835 525.635 928.579 523.448 935.139" stroke="#262626" stroke-width="5" stroke-linecap="round"/>
<path d="M501.884 921.186C495.985 916.648 499.076 913.003 504.843 912.165C509.261 911.524 515.808 910.358 518.691 914.843C523.152 921.783 518.139 928.162 510.763 928.162" stroke="#262626" stroke-width="5" stroke-linecap="round"/>
<path d="M503.152 907.232C512.941 905.452 508.262 896.807 502.553 893.596C498.61 891.378 487.93 891.053 487.93 897.719" stroke="#262626" stroke-width="5" stroke-linecap="round"/>
<path d="M498.078 884.4C505.091 882.997 497.547 873.481 494.766 872.208C490.554 870.281 486.494 869.682 484.759 874.886" stroke="#262626" stroke-width="5" stroke-linecap="round"/>
<path d="M491.101 863.469C495.159 863.469 500.876 853.555 497.092 850.115C493.49 846.841 492.851 845.076 487.93 845.076" stroke="#262626" stroke-width="5" stroke-linecap="round"/>
<path d="M510.763 863.47C514.122 863.843 517.352 867.872 517.986 870.764C519.557 877.918 516.142 879.819 512.666 885.034" stroke="#262626" stroke-width="5" stroke-linecap="round"/>
<path d="M529.791 862.201C521.191 862.201 519.463 874.6 528.663 875.52C538.307 876.485 546.445 882.519 548.818 892.011" stroke="#262626" stroke-width="5" stroke-linecap="round"/>
<path d="M551.355 888.205C551.355 875.854 546.74 866.16 534.865 862.201" stroke="#262626" stroke-width="5" stroke-linecap="round"/>
<path d="M517.105 893.28C518.849 888.843 521.002 887.608 525.351 886.62C530.764 885.39 534.708 888.323 539.304 890.743C541.769 892.04 542.475 897.077 542.475 899.587C542.475 902.21 540.455 904.524 538.036 905.33" stroke="#262626" stroke-width="5" stroke-linecap="round"/>
<path d="M525.985 905.33C529.463 913.833 531.93 915.478 541.418 915.478C544.938 915.478 544.378 911.781 544.378 909.136" stroke="#262626" stroke-width="5" stroke-linecap="round"/>
<path d="M546.281 898.987C547.252 895.424 550.789 896.499 553.257 897.225C556.836 898.278 558.331 904.009 558.331 907.232C558.331 911.029 554.273 916.418 552.271 919.565C551.247 921.174 548.789 922.513 548.184 923.723" stroke="#262626" stroke-width="5" stroke-linecap="round"/>
<path d="M549.452 926.26C552.316 930.556 547.303 938.187 542.475 935.773" stroke="#262626" stroke-width="5" stroke-linecap="round"/>
<path d="M534.23 921.82C531.114 922.08 528.444 924.357 525.351 924.357" stroke="#262626" stroke-width="5" stroke-linecap="round"/>
<path d="M510.763 935.773C512.69 936.049 519.747 939.369 520.911 937.042" stroke="#262626" stroke-width="5" stroke-linecap="round"/>
<path d="M542.475 942.751C546.405 942.358 542.742 937.543 545.012 936.408" stroke="#262626" stroke-width="5" stroke-linecap="round"/>
<path d="M550.72 930.7C551.147 926.439 555.411 923.59 553.257 919.283" stroke="#262626" stroke-width="5" stroke-linecap="round"/>
<path d="M528.522 860.299C525.845 860.031 522.62 857.665 520.277 856.493" stroke="#262626" stroke-width="5" stroke-linecap="round"/>
<path d="M522.179 854.59C526.692 850.303 531.693 848.44 531.693 841.905C531.693 839.013 532.051 835.465 530.425 833.025" stroke="#262626" stroke-width="5" stroke-linecap="round"/>
<path d="M530.425 830.489C532.828 830.222 532.761 826.218 533.596 824.499C535.072 821.459 534.466 820.608 534.23 817.311C534.082 815.236 532.789 810.569 531.693 808.925" stroke="#262626" stroke-width="5" stroke-linecap="round"/>
<path d="M513.934 797.508C509.177 797.508 504.421 797.508 499.664 797.508C495.892 797.508 493.299 799.062 489.833 800.362C486.396 801.651 486.027 804.254 486.027 807.656C486.027 810.798 493.571 814.768 494.907 812.095" stroke="#262626" stroke-width="5" stroke-linecap="round"/>
<path d="M484.759 822.878C484.995 820.283 485.393 817.895 485.393 815.267" stroke="#262626" stroke-width="5" stroke-linecap="round"/>
<path d="M586.238 866.641C583.558 866.884 579.867 868.492 577.852 870.305C575.989 871.982 576.725 875.09 576.725 877.564C576.725 881.064 576.725 884.564 576.725 888.064C576.725 894.368 589.29 892.124 592.933 891.975C599.477 891.708 603.683 889.657 609.106 886.267C612.81 883.953 617.461 881.84 618.867 877.423C620.572 872.064 619.853 865.927 619.853 860.369C619.853 849.128 596 853.9 592.581 859.03" stroke="#262626" stroke-width="5" stroke-linecap="round"/>
<path d="M587.507 853.956C587.203 851.224 584.495 848.576 584.336 845.711C584.23 843.809 586.639 836.948 588.141 836.197" stroke="#262626" stroke-width="5" stroke-linecap="round"/>
<path d="M593.215 829.854C597.582 827.331 604.132 823.214 609.494 824.287C615.637 825.515 619.799 827.947 621.369 834.223C623.099 841.145 622.244 847.759 617.316 852.687" stroke="#262626" stroke-width="5" stroke-linecap="round"/>
<path d="M598.289 820.341C594.313 814.899 588.398 813.364 582.116 813.364C577.324 813.364 572.782 813.083 568.797 816.183C563.339 820.427 561.503 825.456 561.503 832.25C561.503 834.762 562.963 837.174 565.308 838.346C566.76 839.072 570.58 838.347 571.651 839.685C572.182 840.349 575.289 840.206 576.231 840.496C578.169 841.092 580.391 841.271 582.433 841.271" stroke="#262626" stroke-width="5" stroke-linecap="round"/>
<path d="M564.04 820.341C564.04 818.058 565.582 808.369 562.771 806.881C558.094 804.405 555.276 809.177 553.293 812.977C550.804 817.748 553.12 829.809 558.966 831.758" stroke="#262626" stroke-width="5" stroke-linecap="round"/>
<path d="M559.6 802.582C554.818 790.626 570.932 782.53 580.248 784.224C583.892 784.886 586.385 787.342 589.41 789.122C591.054 790.089 590.723 794.47 591.312 796.239" stroke="#262626" stroke-width="5" stroke-linecap="round"/>
<path d="M564.04 808.925C566.828 802.491 571.826 800.68 578.275 800.68C582.148 800.68 582.723 807.258 583.701 810.193" stroke="#262626" stroke-width="5" stroke-linecap="round"/>
<path d="M582.433 800.045C584.99 797.871 588.468 798.166 591.559 797.226C594.318 796.386 597.571 796.863 599.698 798.917C604.273 803.334 601.46 807.061 601.46 812.095" stroke="#262626" stroke-width="5" stroke-linecap="round"/>
<path d="M593.849 793.703C596.207 785.453 607.235 791.433 612.243 792.434C615.006 792.987 616.975 795.264 618.867 797.156C620.471 798.76 623.355 800.705 624.293 802.582" stroke="#262626" stroke-width="5" stroke-linecap="round"/>
<path d="M628.099 810.827C630.786 811.365 633.527 816.787 634.441 819.072" stroke="#262626" stroke-width="5" stroke-linecap="round"/>
<path d="M617.317 816.535L620.488 819.706" stroke="#262626" stroke-width="5" stroke-linecap="round"/>
<path d="M609.706 814.633C609.996 812.018 615.462 812.73 617.317 812.73" stroke="#262626" stroke-width="5" stroke-linecap="round"/>
<path d="M628.733 837.466C630.805 837.926 632.56 842.798 631.834 844.795C631.074 846.883 629.911 848.309 628.099 849.517" stroke="#262626" stroke-width="5" stroke-linecap="round"/>
<path d="M637.612 827.317C641.115 829.458 642.686 835.389 642.686 839.368" stroke="#262626" stroke-width="5" stroke-linecap="round"/>
<path d="M639.515 855.225C639.234 858.873 637.315 862.163 635.71 865.373" stroke="#262626" stroke-width="5" stroke-linecap="round"/>
<path d="M623.025 861.567C625.456 861.695 627.924 863.103 629.332 865.126C630.8 867.236 633.225 869.728 634.3 871.997C636.063 875.718 635.657 883.544 634.934 887.29C634.495 889.57 630.088 896.313 627.464 896.451C625.134 896.574 620.919 898.379 619.854 895.182" stroke="#262626" stroke-width="5" stroke-linecap="round"/>
<path d="M627.464 905.33C624.787 910.982 618.839 911.324 614.145 914.844" stroke="#262626" stroke-width="5" stroke-linecap="round"/>
<path d="M602.095 923.089C596.146 923.449 591.097 924.92 585.604 923.089" stroke="#262626" stroke-width="5" stroke-linecap="round"/>
<path d="M579.896 915.478C577.503 910.692 573.378 900.607 576.09 895.182" stroke="#262626" stroke-width="5" stroke-linecap="round"/>
<path d="M586.873 914.844C592.308 914.481 602.36 913.128 604.808 906.916C606.912 901.575 602.094 897.019 602.094 892.011" stroke="#262626" stroke-width="5" stroke-linecap="round"/>
<path d="M609.071 920.552C609.298 918.403 611.497 916.842 611.608 914.844C611.69 913.374 611.608 911.877 611.608 910.404C611.608 907.695 609.574 906.132 607.169 905.33" stroke="#262626" stroke-width="5" stroke-linecap="round"/>
<path d="M631.904 904.696C634.12 900.51 633.807 896.71 633.807 892.011" stroke="#262626" stroke-width="5" stroke-linecap="round"/>
<path d="M638.881 888.84C639.126 889.576 641.997 883.203 642.052 881.722C642.131 879.58 642.686 877.466 642.686 875.203C642.686 871.04 643.321 867.503 643.321 863.47" stroke="#262626" stroke-width="5" stroke-linecap="round"/>
<path d="M642.052 846.345V850.784" stroke="#262626" stroke-width="5" stroke-linecap="round"/>
<path d="M627.464 914.844C625.695 915.04 620.986 917.751 619.994 919.283C618.868 921.024 615.429 921.181 613.511 921.82" stroke="#262626" stroke-width="5" stroke-linecap="round"/>
<path d="M480.601 983.607C490.112 986.778 498.913 988.324 508.902 988.324" stroke="white" stroke-width="5" stroke-linecap="round"/>
<path d="M523.052 997.758H530.913" stroke="white" stroke-width="5" stroke-linecap="round"/>
<path d="M530.913 997.758C536.963 997.676 542.347 997.087 548.208 996.186" stroke="white" stroke-width="5" stroke-linecap="round"/>
<path d="M582.798 988.324C590.774 985.476 598.545 982.025 606.382 978.891" stroke="white" stroke-width="5" stroke-linecap="round"/>
<path d="M634.682 967.885L628.393 975.746" stroke="white" stroke-width="5" stroke-linecap="round"/>
<path d="M658.266 931.724C656.219 934.344 654.415 936.062 651.977 938.013" stroke="white" stroke-width="5" stroke-linecap="round"/>
<path d="M606.382 963.169C599.058 964.346 591.719 965.311 584.37 966.313" stroke="white" stroke-width="5" stroke-linecap="round"/>
<path d="M518.335 969.457H507.33" stroke="white" stroke-width="5" stroke-linecap="round"/>
<path d="M453.873 774.498C449.821 779.953 445.803 785.148 441.295 790.221" stroke="white" stroke-width="5" stroke-linecap="round"/>
<path d="M457.017 774.498C460.013 772.319 463.288 769.79 466.451 768.209" stroke="white" stroke-width="5" stroke-linecap="round"/>
<path d="M471.167 772.926C475.819 769.491 480.427 766.427 485.318 763.492" stroke="white" stroke-width="5" stroke-linecap="round"/>
<path d="M446.011 755.631C450.709 754.383 454.522 752.948 458.59 750.914" stroke="white" stroke-width="5" stroke-linecap="round"/>
<path d="M469.595 752.486C474.875 749.927 479.854 748.019 485.318 746.197" stroke="white" stroke-width="5" stroke-linecap="round"/>
<path d="M496.324 743.053C499.98 742.339 503.594 741.48 507.33 741.48" stroke="white" stroke-width="5" stroke-linecap="round"/>
<path d="M497.896 735.191C501.721 732.293 504.302 729.822 508.902 728.902" stroke="white" stroke-width="5" stroke-linecap="round"/>
<path d="M460.162 796.51L450.728 809.088" stroke="white" stroke-width="5" stroke-linecap="round"/>
<path d="M427.145 813.804L424 823.237" stroke="white" stroke-width="5" stroke-linecap="round"/>
<path d="M420.855 851.538L422.428 859.399" stroke="white" stroke-width="5" stroke-linecap="round"/>
<path d="M648.833 961.597C641.958 966.77 635.154 972.007 628.393 977.319" stroke="white" stroke-width="5" stroke-linecap="round"/>
<path d="M614.243 983.607C610.581 985.401 607.008 986.91 603.237 988.324" stroke="white" stroke-width="5" stroke-linecap="round"/>
<path d="M584.37 999.33C579.693 1000.83 575.165 1002.47 570.22 1002.47" stroke="white" stroke-width="5" stroke-linecap="round"/>
<path d="M560.786 983.607C557.638 984.222 554.518 984.727 551.353 985.18" stroke="white" stroke-width="5" stroke-linecap="round"/>
<path d="M526.196 985.18H516.763" stroke="white" stroke-width="5" stroke-linecap="round"/>
<path d="M582.798 978.891C577.901 979.002 573.453 979.724 568.647 980.463" stroke="white" stroke-width="5" stroke-linecap="round"/>
<path d="M535.63 969.457H548.208" stroke="white" stroke-width="5" stroke-linecap="round"/>
<path d="M479.029 967.886C474.285 965.841 469.58 963.734 464.879 961.597" stroke="white" stroke-width="5" stroke-linecap="round"/>
<path d="M449.156 953.735L441.295 944.302" stroke="white" stroke-width="5" stroke-linecap="round"/>
<path d="M670.844 930.151C669.113 935.142 667.267 939.782 664.555 944.302" stroke="white" stroke-width="5" stroke-linecap="round"/>
<path d="M666.127 903.423L664.555 912.856" stroke="white" stroke-width="5" stroke-linecap="round"/>
<path d="M615.815 938.013C613.188 939.923 610.769 941.322 607.954 942.729" stroke="white" stroke-width="5" stroke-linecap="round"/>
<path d="M615.815 1002.47C619.998 1000.71 624.122 999.181 628.393 997.758" stroke="white" stroke-width="5" stroke-linecap="round"/>
<path d="M633.11 919.145L637.827 911.284" stroke="white" stroke-width="5" stroke-linecap="round"/>
<path d="M1296.67 1091.84C1288.9 1095.67 1278.43 1098.37 1272.19 1104.61" stroke="white" stroke-width="5" stroke-linecap="round"/>
<path d="M1290.29 1082.26L1284.96 1084.39" stroke="white" stroke-width="5" stroke-linecap="round"/>
<path d="M1308.38 1072.68C1305.13 1074.01 1301.98 1075.47 1298.8 1076.94" stroke="white" stroke-width="5" stroke-linecap="round"/>
<path d="M1316.89 1083.32C1321.99 1080.27 1327.23 1077.54 1331.79 1073.75" stroke="white" stroke-width="5" stroke-linecap="round"/>
<path d="M1325.4 1068.42C1327.86 1066.96 1330.35 1065.56 1332.85 1064.17" stroke="white" stroke-width="5" stroke-linecap="round"/>
<path d="M1339.24 1058.85C1346.07 1057.74 1352.71 1056.11 1359.45 1054.59" stroke="white" stroke-width="5" stroke-linecap="round"/>
<path d="M1349.88 1067.36H1360.52" stroke="white" stroke-width="5" stroke-linecap="round"/>
<path d="M1372.22 1054.59L1377.55 1052.46" stroke="white" stroke-width="5" stroke-linecap="round"/>
<path d="M1320.08 1103.54C1315.5 1106.44 1310.89 1109.27 1306.25 1112.06" stroke="white" stroke-width="5" stroke-linecap="round"/>
<path d="M1291.35 1113.12L1286.03 1119.5" stroke="white" stroke-width="5" stroke-linecap="round"/>
<path d="M1249.85 1129.08L1256.23 1122.7" stroke="white" stroke-width="5" stroke-linecap="round"/>
<path d="M1248.78 1118.44C1247.22 1120.51 1245.34 1122.39 1244.53 1124.82" stroke="white" stroke-width="5" stroke-linecap="round"/>
<path d="M1246.66 1151.43L1244.53 1156.75" stroke="white" stroke-width="5" stroke-linecap="round"/>
<path d="M1236.01 1156.75L1232.82 1163.13" stroke="white" stroke-width="5" stroke-linecap="round"/>
<path d="M1231.76 1183.35L1230.69 1190.8" stroke="white" stroke-width="5" stroke-linecap="round"/>
<path d="M1222.18 1219.53C1221.76 1221.66 1221.42 1223.78 1221.12 1225.92" stroke="white" stroke-width="5" stroke-linecap="round"/>
<path d="M1215.79 1166.33L1211.54 1175.9" stroke="white" stroke-width="5" stroke-linecap="round"/>
<path d="M1205.15 1251.46V1261.04" stroke="white" stroke-width="5" stroke-linecap="round"/>
<path d="M1284.96 1141.85C1280.88 1146.02 1278.05 1151.96 1274.32 1155.68" stroke="white" stroke-width="5" stroke-linecap="round"/>
<path d="M1264.75 1151.43C1263.91 1153.56 1263.24 1155.64 1262.62 1157.81" stroke="white" stroke-width="5" stroke-linecap="round"/>
<path d="M1259.42 1173.78C1258.58 1177.74 1257.4 1181.6 1256.23 1185.48" stroke="white" stroke-width="5" stroke-linecap="round"/>
<path d="M1366.9 1475.99C1376.49 1476.63 1386.03 1477.06 1395.64 1477.06" stroke="white" stroke-width="5" stroke-linecap="round"/>
<path d="M1405.21 1474.93H1410.53" stroke="white" stroke-width="5" stroke-linecap="round"/>
<path d="M1396.7 1466.42C1399.89 1466.02 1403.08 1465.67 1406.28 1465.35" stroke="white" stroke-width="5" stroke-linecap="round"/>
<path d="M1420.11 1469.61C1422.61 1469.13 1425.05 1468.82 1427.56 1468.54" stroke="white" stroke-width="5" stroke-linecap="round"/>
<path d="M1433.95 1480.25L1438.2 1477.06" stroke="white" stroke-width="5" stroke-linecap="round"/>
<path d="M1409.47 1494.08C1407.02 1494.08 1394.9 1495.8 1393.51 1493.02" stroke="white" stroke-width="5" stroke-linecap="round"/>
<path d="M1376.48 1496.21C1372.77 1496.21 1369.13 1496.79 1365.84 1495.15" stroke="white" stroke-width="5" stroke-linecap="round"/>
<path d="M1344.56 1485.57C1342.42 1484.74 1340.35 1484.06 1338.17 1483.44" stroke="white" stroke-width="5" stroke-linecap="round"/>
<path d="M1346.69 1471.74C1343.4 1471.11 1340.26 1470.66 1337.11 1469.61" stroke="white" stroke-width="5" stroke-linecap="round"/>
<path d="M1331.79 1455.78C1328.65 1454.69 1325.64 1453.89 1323.27 1451.52" stroke="white" stroke-width="5" stroke-linecap="round"/>
<path d="M1303.05 1457.9C1298.26 1454.33 1294.45 1450.37 1290.29 1446.2" stroke="white" stroke-width="5" stroke-linecap="round"/>
<path d="M1473.32 1479.19C1475.87 1477.73 1478.07 1476.89 1480.77 1475.99" stroke="white" stroke-width="5" stroke-linecap="round"/>
<path d="M1503.11 1464.29C1504.06 1462.01 1505.1 1460.01 1506.31 1457.9" stroke="white" stroke-width="5" stroke-linecap="round"/>
<path d="M1585.05 1395.12C1582.82 1398.24 1581.38 1401.98 1578.67 1404.7" stroke="white" stroke-width="5" stroke-linecap="round"/>
<path d="M1625.49 1357.87C1623.75 1360.26 1622.16 1362.56 1621.24 1365.32" stroke="white" stroke-width="5" stroke-linecap="round"/>
<path d="M1528.65 1469.61C1531.94 1467.25 1535.37 1465.03 1538.23 1462.16" stroke="white" stroke-width="5" stroke-linecap="round"/>
<path d="M1585.05 1166.33C1581.77 1163.04 1577.55 1159.83 1575.48 1155.68" stroke="white" stroke-width="5" stroke-linecap="round"/>
<path d="M1569.09 1140.79L1575.48 1147.17" stroke="white" stroke-width="5" stroke-linecap="round"/>
<path d="M1586.12 1129.08C1588.58 1130.95 1591.03 1132.71 1593.57 1134.4" stroke="white" stroke-width="5" stroke-linecap="round"/>
<path d="M1580.8 1116.31C1582.18 1118.08 1583.4 1119.25 1585.05 1120.57" stroke="white" stroke-width="5" stroke-linecap="round"/>
<path d="M1549.94 1090.77C1552.23 1093.14 1554.35 1095.59 1556.32 1098.22" stroke="white" stroke-width="5" stroke-linecap="round"/>
<path d="M1542.49 1096.09C1545.16 1098.12 1546.83 1100.43 1548.87 1102.48" stroke="white" stroke-width="5" stroke-linecap="round"/>
<path d="M1563.77 1120.57L1566.96 1124.82" stroke="white" stroke-width="5" stroke-linecap="round"/>
<path d="M1605.27 1162.07C1606.36 1166.83 1607.99 1171.28 1609.53 1175.9" stroke="white" stroke-width="5" stroke-linecap="round"/>
<path d="M1624.43 1190.8C1624.95 1193.17 1625.63 1195.03 1626.56 1197.19" stroke="white" stroke-width="5" stroke-linecap="round"/>
<path d="M1615.91 1198.25C1616.42 1200.49 1617.05 1202.64 1618.04 1204.64" stroke="white" stroke-width="5" stroke-linecap="round"/>
<path d="M1627.62 1209.96C1627.62 1213.88 1627.02 1218.34 1628.68 1221.66" stroke="white" stroke-width="5" stroke-linecap="round"/>
<path d="M1634.01 1247.2L1631.88 1241.88" stroke="white" stroke-width="5" stroke-linecap="round"/>
<path d="M1524.4 1079.07C1522.62 1077.77 1520.98 1076.83 1519.08 1075.87" stroke="white" stroke-width="5" stroke-linecap="round"/>
<path d="M1854.86 544.442C1851.65 547.474 1848.61 549.906 1844.59 551.628" stroke="white" stroke-width="5" stroke-linecap="round"/>
<path d="M1874.36 540.336C1876.67 538.659 1878.88 537.118 1881.55 536.23" stroke="white" stroke-width="5" stroke-linecap="round"/>
<path d="M1869.23 551.627C1874.09 551.482 1878.5 551.261 1882.57 548.548" stroke="white" stroke-width="5" stroke-linecap="round"/>
<path d="M1895.92 541.362H1906.18" stroke="white" stroke-width="5" stroke-linecap="round"/>
<path d="M1926.71 556.76C1929.21 559.41 1931.4 562.481 1933.9 564.972" stroke="white" stroke-width="5" stroke-linecap="round"/>
<path d="M1943.13 589.607C1943.19 593.187 1943.62 596.381 1944.16 599.872" stroke="white" stroke-width="5" stroke-linecap="round"/>
<path d="M1935.95 618.349C1934.65 620.482 1933.29 622.486 1931.84 624.508" stroke="white" stroke-width="5" stroke-linecap="round"/>
<path d="M1886.68 647.09H1895.92" stroke="white" stroke-width="5" stroke-linecap="round"/>
<path d="M1858.96 625.534L1853.83 620.401" stroke="white" stroke-width="5" stroke-linecap="round"/>
<ellipse cx="2340.46" cy="849.5" rx="147" ry="146.5" fill="#1ED747"/>
<path d="M2303.81 834.675C2303.81 836.843 2302.8 839.046 2301.84 840.965" stroke="#262626" stroke-width="5" stroke-linecap="round"/>
<path d="M2300.27 845.683C2300.27 847.152 2299.93 848.273 2299.48 849.614" stroke="#262626" stroke-width="5" stroke-linecap="round"/>
<path d="M2296.73 853.938C2296.46 855.671 2295.59 857.34 2295.16 859.048" stroke="#262626" stroke-width="5" stroke-linecap="round"/>
<path d="M2299.48 857.082C2300.72 858.634 2301.6 860.379 2303.02 861.799" stroke="#262626" stroke-width="5" stroke-linecap="round"/>
<path d="M2308.92 865.73C2311.24 866.04 2313.33 867.241 2315.6 867.696" stroke="#262626" stroke-width="5" stroke-linecap="round"/>
<path d="M2322.28 865.338C2322.51 864.307 2324.62 863.229 2325.43 862.586" stroke="#262626" stroke-width="5" stroke-linecap="round"/>
<path d="M2327.79 858.655C2328.38 857.461 2329.1 856.436 2329.36 855.117" stroke="#262626" stroke-width="5" stroke-linecap="round"/>
<path d="M2310.88 871.234C2312.58 873.219 2313.28 875.634 2314.42 877.917" stroke="#262626" stroke-width="5" stroke-linecap="round"/>
<path d="M2317.17 882.241C2317.56 880.695 2317.96 885.364 2317.96 886.958" stroke="#262626" stroke-width="5" stroke-linecap="round"/>
<path d="M2321.1 879.097C2323.36 879.347 2325.15 881.565 2326.61 883.028" stroke="#262626" stroke-width="5" stroke-linecap="round"/>
<path d="M2333.68 886.959C2333.58 887.019 2337.58 891.616 2338.01 892.462" stroke="#262626" stroke-width="5" stroke-linecap="round"/>
<path d="M2345.87 901.11C2346.9 902.025 2348.69 901.548 2349.8 902.29" stroke="#262626" stroke-width="5" stroke-linecap="round"/>
<path d="M2294.37 863.372V871.627" stroke="#262626" stroke-width="5" stroke-linecap="round"/>
<path d="M2294.37 875.951C2293.15 875.829 2292.34 874.461 2291.62 873.593" stroke="#262626" stroke-width="5" stroke-linecap="round"/>
<path d="M2291.62 877.917C2288.94 877.274 2285.66 874.709 2283.76 872.807" stroke="#262626" stroke-width="5" stroke-linecap="round"/>
<path d="M2282.58 872.807C2281.26 871.608 2280.23 870.063 2279.04 868.876" stroke="#262626" stroke-width="5" stroke-linecap="round"/>
<path d="M2273.93 862.979C2274.61 863.182 2275.08 864.018 2275.5 864.551" stroke="#262626" stroke-width="5" stroke-linecap="round"/>
<path d="M2280.22 861.406C2281.16 862.629 2281.54 864.239 2281.79 865.73" stroke="#262626" stroke-width="5" stroke-linecap="round"/>
<path d="M2286.51 866.517V866.91" stroke="#262626" stroke-width="5" stroke-linecap="round"/>
<path d="M2287.69 856.689C2287.87 857.612 2287.98 858.512 2288.08 859.441" stroke="#262626" stroke-width="5" stroke-linecap="round"/>
<path d="M2280.22 857.476V858.655" stroke="#262626" stroke-width="5" stroke-linecap="round"/>
<path d="M2274.72 855.903V856.69" stroke="#262626" stroke-width="5" stroke-linecap="round"/>
<path d="M2271.97 851.972C2272 852.505 2272.14 852.705 2272.36 853.151" stroke="#262626" stroke-width="5" stroke-linecap="round"/>
<path d="M2279.43 848.827C2279.43 850.081 2279.56 851.157 2279.83 852.365" stroke="#262626" stroke-width="5" stroke-linecap="round"/>
<path d="M2288.48 848.827C2288.48 849.373 2288.38 849.562 2288.08 850.006" stroke="#262626" stroke-width="5" stroke-linecap="round"/>
<path d="M2274.32 844.109V845.682" stroke="#262626" stroke-width="5" stroke-linecap="round"/>
<path d="M2270.39 842.537C2270.33 843.195 2270.13 843.856 2270 844.503" stroke="#262626" stroke-width="5" stroke-linecap="round"/>
<path d="M2270.39 835.068C2270.65 832.339 2272.4 829.825 2273.14 827.206" stroke="#262626" stroke-width="5" stroke-linecap="round"/>
<path d="M2273.93 822.096C2273.93 820.69 2274.45 819.517 2274.72 818.165" stroke="#262626" stroke-width="5" stroke-linecap="round"/>
<path d="M2276.68 810.695C2278.24 805.035 2277.19 797.916 2275.98 792.307C2275.7 790.974 2273.13 783.151 2275.55 782.806C2277.26 782.562 2278.44 782.608 2280.05 781.78C2280.77 781.408 2281.01 780.958 2281.01 782.086C2281.01 784.965 2281.41 787.472 2281.99 790.275C2282.86 794.429 2284 798.45 2285.33 802.44" stroke="#262626" stroke-width="5" stroke-linecap="round"/>
<path d="M2291.23 799.296C2291.45 796.875 2293.71 794.379 2294.57 792.067C2295.22 790.319 2296.18 788.703 2296.73 786.913C2297.04 785.9 2297.7 783.766 2298.92 783.987C2300.23 784.226 2302.01 784.729 2303.24 785.231C2304.47 785.734 2304.74 785.497 2304.11 786.979C2302.46 790.868 2300.8 794.722 2299 798.51C2296.89 802.974 2297.52 808.223 2297.52 813.098C2297.52 815.487 2297.41 817.559 2298.7 819.65C2299.27 820.574 2299.67 822.384 2300.66 822.882" stroke="#262626" stroke-width="5" stroke-linecap="round"/>
<path d="M2291.62 826.813C2292.99 827.271 2293.06 831.125 2293.19 832.317" stroke="#262626" stroke-width="5" stroke-linecap="round"/>
<path d="M2284.55 838.999C2284.2 840.117 2283.23 841.174 2282.58 842.144" stroke="#262626" stroke-width="5" stroke-linecap="round"/>
<path d="M2279.43 833.889C2279.76 833.482 2279.73 833.198 2279.83 832.71" stroke="#262626" stroke-width="5" stroke-linecap="round"/>
<path d="M2305.38 827.206C2305.96 826.278 2309.08 826.813 2310.1 826.813" stroke="#262626" stroke-width="5" stroke-linecap="round"/>
<path d="M2318.35 824.062C2319.13 823.286 2319.91 822.46 2321.02 822.184C2321.65 822.025 2322 822.266 2322.28 821.703" stroke="#262626" stroke-width="5" stroke-linecap="round"/>
<path d="M2320.71 827.993C2323.69 827.844 2327.47 827.884 2330.15 826.813" stroke="#262626" stroke-width="5" stroke-linecap="round"/>
<path d="M2311.67 831.138C2313.91 831.138 2316.13 831.531 2318.35 831.531" stroke="#262626" stroke-width="5" stroke-linecap="round"/>
<path d="M2332.11 831.924C2333.68 832.246 2335.23 832.317 2336.83 832.317" stroke="#262626" stroke-width="5" stroke-linecap="round"/>
<path d="M2327.39 822.489C2330.54 822.489 2334.32 821.827 2337.22 823.275" stroke="#262626" stroke-width="5" stroke-linecap="round"/>
<path d="M2344.3 824.454C2345.09 825.165 2346.03 825.43 2347.05 825.633" stroke="#262626" stroke-width="5" stroke-linecap="round"/>
<path d="M2339.19 827.992C2340.82 828.225 2342.36 829.049 2343.9 829.565" stroke="#262626" stroke-width="5" stroke-linecap="round"/>
<path d="M2329.75 818.165H2340.37" stroke="#262626" stroke-width="5" stroke-linecap="round"/>
<path d="M2325.82 812.268C2326.04 811.062 2326.85 809.813 2327.39 808.73" stroke="#262626" stroke-width="5" stroke-linecap="round"/>
<path d="M2334.08 796.544C2336.3 795.953 2338.52 795.459 2340.76 794.972" stroke="#262626" stroke-width="5" stroke-linecap="round"/>
<path d="M2349.8 796.544C2350.6 797.802 2353.23 798.613 2354.52 799.296" stroke="#262626" stroke-width="5" stroke-linecap="round"/>
<path d="M2358.06 807.551C2354.83 811.388 2351.95 817.026 2357.36 820.13C2361.83 822.699 2365.34 824.125 2370.24 822.489" stroke="#262626" stroke-width="5" stroke-linecap="round"/>
<path d="M2367.88 807.551C2369.38 807.251 2373.13 810.465 2373.87 811.875C2374.37 812.835 2374.16 813.993 2374.57 815.02" stroke="#262626" stroke-width="5" stroke-linecap="round"/>
<path d="M2353.73 825.24C2355.68 825.435 2357.78 827.615 2359.24 828.778" stroke="#262626" stroke-width="5" stroke-linecap="round"/>
<path d="M2363.56 834.675C2363.8 837.523 2365.55 840.37 2366.7 842.93" stroke="#262626" stroke-width="5" stroke-linecap="round"/>
<path d="M2366.31 848.827C2366.14 850.541 2365.34 852.666 2364.67 854.243C2363.71 856.516 2363.24 858.852 2362.38 861.013" stroke="#262626" stroke-width="5" stroke-linecap="round"/>
<path d="M2370.64 852.758C2371.34 853.109 2371.95 853.612 2372.6 853.937" stroke="#262626" stroke-width="5" stroke-linecap="round"/>
<path d="M2363.17 866.517C2363.2 867.842 2363.56 869.132 2363.56 870.448" stroke="#262626" stroke-width="5" stroke-linecap="round"/>
<path d="M2360.02 851.972C2358.22 853.325 2354.74 853.499 2352.55 853.937" stroke="#262626" stroke-width="5" stroke-linecap="round"/>
<path d="M2378.89 857.868C2378.89 859.214 2379.33 860.689 2380.07 861.799" stroke="#262626" stroke-width="5" stroke-linecap="round"/>
<path d="M2368.67 837.034C2370.01 837.499 2371.04 838.22 2372.21 839" stroke="#262626" stroke-width="5" stroke-linecap="round"/>
<path d="M2376.93 840.572C2378.91 840.737 2380.9 841.664 2382.82 842.145" stroke="#262626" stroke-width="5" stroke-linecap="round"/>
<path d="M2371.42 827.206C2372.62 827.836 2373.61 828.611 2374.57 829.565" stroke="#262626" stroke-width="5" stroke-linecap="round"/>
<path d="M2375.75 824.062C2375.78 825.122 2375.97 826.162 2376.14 827.206" stroke="#262626" stroke-width="5" stroke-linecap="round"/>
<path d="M2376.14 820.523C2376.14 821.186 2376.25 821.524 2376.53 822.096" stroke="#262626" stroke-width="5" stroke-linecap="round"/>
<path d="M2365.92 828.386C2367.33 829.091 2368.68 829.698 2370.24 829.958" stroke="#262626" stroke-width="5" stroke-linecap="round"/>
<path d="M2379.28 830.744C2380.7 831.539 2383.47 832.684 2384 834.282" stroke="#262626" stroke-width="5" stroke-linecap="round"/>
<path d="M2373.78 834.675C2375.64 834.795 2377.41 835.461 2379.28 835.461" stroke="#262626" stroke-width="5" stroke-linecap="round"/>
<path d="M2387.93 839.393C2389.84 841.317 2391.65 843.267 2393.44 845.289" stroke="#262626" stroke-width="5" stroke-linecap="round"/>
<path d="M2388.72 846.075C2390.63 847.03 2392.26 849.033 2393.44 850.792" stroke="#262626" stroke-width="5" stroke-linecap="round"/>
<path d="M2396.58 855.51C2396.58 857.659 2396.95 859.701 2397.37 861.799" stroke="#262626" stroke-width="5" stroke-linecap="round"/>
<path d="M2383.61 849.22C2383.42 848.671 2382.51 848.328 2382.04 848.041" stroke="#262626" stroke-width="5" stroke-linecap="round"/>
<path d="M2372.6 844.896C2372 844.577 2371.32 844.292 2371.03 843.717" stroke="#262626" stroke-width="5" stroke-linecap="round"/>
<path d="M2353.34 833.496C2350.98 833.496 2348.54 832.885 2346.26 832.316" stroke="#262626" stroke-width="5" stroke-linecap="round"/>
<path d="M2397.76 867.696C2397.76 870.477 2397.76 873.2 2398.15 875.952" stroke="#262626" stroke-width="5" stroke-linecap="round"/>
<path d="M2398.94 885.779C2398.94 886.921 2399.05 887.911 2398.55 888.924" stroke="#262626" stroke-width="5" stroke-linecap="round"/>
<path d="M2397.76 897.572C2397.67 898.371 2397.26 899.208 2396.97 899.931" stroke="#262626" stroke-width="5" stroke-linecap="round"/>
<path d="M2395.4 910.938C2395.4 912.969 2395.77 915.317 2395.01 917.228" stroke="#262626" stroke-width="5" stroke-linecap="round"/>
<path d="M2390.68 925.876C2390.29 927.305 2388.6 928.709 2387.54 929.414" stroke="#262626" stroke-width="5" stroke-linecap="round"/>
<path d="M2380.07 931.773C2377.59 931.773 2374.99 932.063 2372.6 931.38" stroke="#262626" stroke-width="5" stroke-linecap="round"/>
<path d="M2363.56 930.987C2363.46 930.188 2361.39 929.982 2360.81 929.808" stroke="#262626" stroke-width="5" stroke-linecap="round"/>
<path d="M2353.34 928.628C2350.29 928.628 2347.11 927.718 2344.3 926.662" stroke="#262626" stroke-width="5" stroke-linecap="round"/>
<path d="M2333.29 919.194C2330.83 917.708 2328.52 916.274 2325.82 915.263" stroke="#262626" stroke-width="5" stroke-linecap="round"/>
<path d="M2317.96 912.117C2315.81 911.513 2313.39 910.874 2311.67 909.365C2311.24 908.989 2311.02 908.757 2310.49 908.579" stroke="#262626" stroke-width="5" stroke-linecap="round"/>
<path d="M2301.84 901.111C2301.62 898.216 2299.88 895.7 2299.88 892.855" stroke="#262626" stroke-width="5" stroke-linecap="round"/>
<path d="M2292.41 879.097C2293.46 880.715 2294 882.332 2294.37 884.207" stroke="#262626" stroke-width="5" stroke-linecap="round"/>
<path d="M2296.73 872.021C2297.42 873.543 2297.85 875.135 2298.3 876.738" stroke="#262626" stroke-width="5" stroke-linecap="round"/>
<path d="M2298.3 865.338C2299.18 866.175 2300.12 866.92 2301.06 867.697" stroke="#262626" stroke-width="5" stroke-linecap="round"/>
<path d="M2291.23 870.055C2290.94 868.314 2290.04 866.492 2289.26 864.944" stroke="#262626" stroke-width="5" stroke-linecap="round"/>
<path d="M2283.76 864.159C2284.43 863.067 2284.15 861.467 2284.15 860.228" stroke="#262626" stroke-width="5" stroke-linecap="round"/>
<path d="M2293.59 851.185C2292.81 851.088 2291.69 849.013 2291.23 848.434" stroke="#262626" stroke-width="5" stroke-linecap="round"/>
<path d="M2302.23 872.414C2302.74 874.055 2304.44 875.1 2304.99 876.738" stroke="#262626" stroke-width="5" stroke-linecap="round"/>
<path d="M2304.99 882.241C2304.76 883.488 2303.97 884.659 2303.41 885.779" stroke="#262626" stroke-width="5" stroke-linecap="round"/>
<path d="M2310.1 884.6C2312.31 885.738 2314.32 887.154 2316.39 888.531" stroke="#262626" stroke-width="5" stroke-linecap="round"/>
<path d="M2314.42 899.931C2313.92 900.982 2312.85 902.304 2312.85 903.469" stroke="#262626" stroke-width="5" stroke-linecap="round"/>
<path d="M2319.14 892.069C2320.64 893.178 2321.4 894.722 2322.68 896" stroke="#262626" stroke-width="5" stroke-linecap="round"/>
<path d="M2331.32 900.324C2332.83 900.249 2334.15 899.538 2335.65 899.538" stroke="#262626" stroke-width="5" stroke-linecap="round"/>
<path d="M2327.79 904.648V912.904" stroke="#262626" stroke-width="5" stroke-linecap="round"/>
<path d="M2337.22 911.331C2339.22 912.384 2341.6 913.297 2343.9 913.297" stroke="#262626" stroke-width="5" stroke-linecap="round"/>
<path d="M2356.48 914.476C2357.98 914.476 2360.33 914.928 2361.59 914.083" stroke="#262626" stroke-width="5" stroke-linecap="round"/>
<path d="M2328.57 846.469V848.434" stroke="#262626" stroke-width="5" stroke-linecap="round"/>
<path d="M2306.95 779.64C2306.95 773.2 2308.79 767.119 2304.83 761.404C2303.83 759.952 2308.78 759.111 2309.92 758.805C2313.06 757.969 2311.84 758.168 2313.44 760.727C2314.52 762.464 2314.37 765.383 2314.73 767.366C2315.2 770.01 2315.15 772.734 2315.99 775.316C2317.75 780.703 2317.96 786.938 2317.96 792.612" stroke="#262626" stroke-width="5" stroke-linecap="round"/>
<path d="M2317.96 772.171C2321.27 769.232 2320.99 763.216 2321.1 758.98C2321.14 757.662 2320.66 755.071 2322.5 754.896C2325.59 754.601 2329 753.722 2332.11 754.088C2334.26 754.34 2332.18 763.763 2331.94 764.592C2331.28 766.873 2330.47 768.754 2330.54 771.166C2330.62 774.057 2332.75 776.69 2333.86 779.225C2335.15 782.177 2335.74 785.38 2336.04 788.681" stroke="#262626" stroke-width="5" stroke-linecap="round"/>
<path d="M2395.81 734.341C2397.96 735.854 2399.63 736.543 2401.97 737.42" stroke="white" stroke-width="5" stroke-linecap="round"/>
<path d="M2410.18 742.553C2411.89 743.889 2413.02 745.067 2414.29 746.659" stroke="white" stroke-width="5" stroke-linecap="round"/>
<path d="M2423.53 744.605C2425.73 745.517 2427.65 746.523 2429.69 747.685" stroke="white" stroke-width="5" stroke-linecap="round"/>
<path d="M2411.21 732.288C2413.21 733.8 2415.02 735.612 2417.37 736.394" stroke="white" stroke-width="5" stroke-linecap="round"/>
<path d="M2391.71 725.103L2396.84 727.156" stroke="white" stroke-width="5" stroke-linecap="round"/>
<path d="M2367.07 724.076C2369.89 724.143 2372.56 724.423 2375.28 725.103" stroke="white" stroke-width="5" stroke-linecap="round"/>
<path d="M2372.2 734.341C2374.59 734.399 2376.21 734.751 2378.36 735.367" stroke="white" stroke-width="5" stroke-linecap="round"/>
<path d="M2380.42 743.579C2384.03 745.424 2387.38 747.383 2390.68 749.738" stroke="white" stroke-width="5" stroke-linecap="round"/>
<path d="M2405.05 750.765C2409.35 754.162 2413.87 756.984 2418.4 760.003" stroke="white" stroke-width="5" stroke-linecap="round"/>
<path d="M2403 762.056C2404.95 763.478 2407.09 765.129 2409.16 766.162" stroke="white" stroke-width="5" stroke-linecap="round"/>
<path d="M2421.47 766.162L2425.58 770.268" stroke="white" stroke-width="5" stroke-linecap="round"/>
<path d="M2426.61 758.977C2429 760.375 2431.51 761.563 2433.79 763.082" stroke="white" stroke-width="5" stroke-linecap="round"/>
<path d="M2444.06 771.295C2445.8 773.67 2447.43 776.13 2449.19 778.48" stroke="white" stroke-width="5" stroke-linecap="round"/>
<path d="M2401.97 783.612L2408.13 789.771" stroke="white" stroke-width="5" stroke-linecap="round"/>
<path d="M2343.46 745.633C2346.41 747.578 2349.26 749.905 2352.7 750.765" stroke="white" stroke-width="5" stroke-linecap="round"/>
<path d="M2330.12 722.023L2324.99 723.05" stroke="white" stroke-width="5" stroke-linecap="round"/>
<path d="M2295.22 730.235C2289.85 731.879 2284.83 733.889 2279.82 736.394" stroke="white" stroke-width="5" stroke-linecap="round"/>
<path d="M2272.63 751.791L2268.53 755.897" stroke="white" stroke-width="5" stroke-linecap="round"/>
<path d="M2260.32 758.977L2256.21 763.082" stroke="white" stroke-width="5" stroke-linecap="round"/>
<path d="M2243.89 775.4L2242.87 780.533" stroke="white" stroke-width="5" stroke-linecap="round"/>
<path d="M2228.5 855.466L2229.52 863.678" stroke="white" stroke-width="5" stroke-linecap="round"/>
<path d="M2235.68 871.89L2237.73 877.022" stroke="white" stroke-width="5" stroke-linecap="round"/>
<path d="M2231.58 882.154C2232.38 884.212 2233.03 886.212 2233.63 888.313" stroke="white" stroke-width="5" stroke-linecap="round"/>
<path d="M2248 893.446L2249.03 898.579" stroke="white" stroke-width="5" stroke-linecap="round"/>
<path d="M2238.76 901.657C2239.39 904.752 2240.1 907.819 2240.81 910.896" stroke="white" stroke-width="5" stroke-linecap="round"/>
<path d="M2246.97 911.923C2248.61 914.066 2250.33 916.057 2252.11 918.082" stroke="white" stroke-width="5" stroke-linecap="round"/>
<path d="M2257.24 937.585L2262.37 939.638" stroke="white" stroke-width="5" stroke-linecap="round"/>
<path d="M2281.87 955.035C2283.93 956.236 2285.89 957.196 2288.03 958.115" stroke="white" stroke-width="5" stroke-linecap="round"/>
<path d="M2370.15 965.3C2372.89 964.916 2375.62 964.578 2378.36 964.273" stroke="white" stroke-width="5" stroke-linecap="round"/>
<path d="M2387.6 959.14C2390.55 957.195 2393.4 954.868 2396.84 954.008" stroke="white" stroke-width="5" stroke-linecap="round"/>
<path d="M2386.57 948.876L2391.71 945.797" stroke="white" stroke-width="5" stroke-linecap="round"/>
<path d="M2409.16 945.797L2416.34 938.611" stroke="white" stroke-width="5" stroke-linecap="round"/>
<path d="M2426.61 932.452V927.319" stroke="white" stroke-width="5" stroke-linecap="round"/>
<path d="M2420.45 922.187C2420.85 920.132 2421.18 918.095 2421.47 916.028" stroke="white" stroke-width="5" stroke-linecap="round"/>
<path d="M2438.92 923.214C2439.45 920.471 2439.95 917.797 2439.95 915.002" stroke="white" stroke-width="5" stroke-linecap="round"/>
<path d="M2433.79 941.691C2435.99 940.779 2437.92 939.774 2439.95 938.611" stroke="white" stroke-width="5" stroke-linecap="round"/>
<path d="M2420.45 957.088C2418.74 958.424 2417.62 959.602 2416.34 961.194" stroke="white" stroke-width="5" stroke-linecap="round"/>
<path d="M2403 968.379C2398.44 969.324 2393.33 971.458 2388.63 971.458" stroke="white" stroke-width="5" stroke-linecap="round"/>
<path d="M2354.75 977.617H2361.94" stroke="white" stroke-width="5" stroke-linecap="round"/>
<path d="M2347.57 960.167L2342.44 959.141" stroke="white" stroke-width="5" stroke-linecap="round"/>
<path d="M2456.38 907.816C2457.46 905.19 2459.45 902.505 2459.45 899.604" stroke="white" stroke-width="5" stroke-linecap="round"/>
<path d="M2440.98 900.632L2444.06 894.473" stroke="white" stroke-width="5" stroke-linecap="round"/>
<path d="M2461.51 886.26C2461.57 883.878 2461.92 882.258 2462.53 880.102" stroke="white" stroke-width="5" stroke-linecap="round"/>
<path d="M883.973 539.361C888.938 539.237 893.166 537.38 897.844 537.38" stroke="white" stroke-width="5" stroke-linecap="round"/>
<path d="M915.677 535.399C919.795 532.888 923.664 530.26 927.566 527.473" stroke="white" stroke-width="5" stroke-linecap="round"/>
<path d="M868.121 527.473C862.692 527.34 857.538 526.545 852.269 525.491" stroke="white" stroke-width="5" stroke-linecap="round"/>
<path d="M963.234 511.62C966.622 509.053 969.883 506.41 973.141 503.694" stroke="white" stroke-width="5" stroke-linecap="round"/>
<path d="M889.918 366.971H903.788" stroke="white" stroke-width="5" stroke-linecap="round"/>
<path d="M919.64 370.934C925.605 372.182 931.517 373.705 937.474 374.897" stroke="white" stroke-width="5" stroke-linecap="round"/>
<path d="M931.529 364.989L941.437 368.952" stroke="white" stroke-width="5" stroke-linecap="round"/>
<path d="M953.326 374.896C956.591 378.062 959.601 380.401 963.234 382.823" stroke="white" stroke-width="5" stroke-linecap="round"/>
<path d="M947.381 392.73L949.363 402.638" stroke="white" stroke-width="5" stroke-linecap="round"/>
<path d="M2281.57 370.105C2286.31 376.174 2292.88 381.787 2296.16 388.335" stroke="white" stroke-width="5" stroke-linecap="round"/>
<path d="M2500.33 1361.8C2492.52 1365.04 2485.68 1368.61 2478.45 1372.74" stroke="white" stroke-width="5" stroke-linecap="round"/>
<path d="M2540.44 1336.28C2548.77 1339.53 2556.89 1343.57 2565.96 1343.57" stroke="white" stroke-width="5" stroke-linecap="round"/>
<path d="M203.386 1026.38C211.144 1024.63 215.617 1022.68 221.616 1019.08" stroke="white" stroke-width="5" stroke-linecap="round"/>
<circle cx="394.959" cy="611.5" r="71.5" fill="#1ED747"/>
<path d="M376.858 561.377C380.313 561.293 383.572 561.038 386.831 559.952" stroke="white" stroke-width="5" stroke-linecap="round"/>
<path d="M392.529 558.527H401.077" stroke="white" stroke-width="5" stroke-linecap="round"/>
<path d="M406.776 561.377H413.899" stroke="white" stroke-width="5" stroke-linecap="round"/>
<path d="M361.187 561.377L354.063 565.651" stroke="white" stroke-width="5" stroke-linecap="round"/>
<path d="M355.488 577.048C353.433 579.842 351.62 582.667 349.789 585.596" stroke="white" stroke-width="5" stroke-linecap="round"/>
<path d="M338.392 599.843L336.968 606.966" stroke="white" stroke-width="5" stroke-linecap="round"/>
<path d="M419.598 652.555L423.872 646.856" stroke="white" stroke-width="5" stroke-linecap="round"/>
<path d="M406.776 661.103C401.452 660.977 396.407 659.679 391.104 659.679" stroke="white" stroke-width="5" stroke-linecap="round"/>
<path d="M2254.23 378.764L2225.19 386.022" stroke="white" stroke-width="5" stroke-linecap="round"/>
<path d="M2256.48 367.392H2266.33" stroke="white" stroke-width="5" stroke-linecap="round"/>
<path d="M2238.18 367.391C2240.53 365.681 2242.7 364.428 2245.22 363.168" stroke="white" stroke-width="5" stroke-linecap="round"/>
<path d="M2318.42 427.924C2317.2 431.433 2315.83 434.516 2314.2 437.778" stroke="white" stroke-width="5" stroke-linecap="round"/>
<path d="M2259.29 468.748H2270.56" stroke="white" stroke-width="5" stroke-linecap="round"/>
</svg>
